<?xml version="1.0" encoding="utf-8" standalone="no"?>
<!DOCTYPE svg PUBLIC "-//W3C//DTD SVG 1.1//EN"
  "http://www.w3.org/Graphics/SVG/1.1/DTD/svg11.dtd">
<svg xmlns:xlink="http://www.w3.org/1999/xlink" width="864pt" height="504pt" viewBox="0 0 864 504" xmlns="http://www.w3.org/2000/svg" version="1.1">
 <metadata>
  <rdf:RDF xmlns:dc="http://purl.org/dc/elements/1.1/" xmlns:cc="http://creativecommons.org/ns#" xmlns:rdf="http://www.w3.org/1999/02/22-rdf-syntax-ns#">
   <cc:Work>
    <dc:type rdf:resource="http://purl.org/dc/dcmitype/StillImage"/>
    <dc:date>2026-04-10T10:22:58.746708</dc:date>
    <dc:format>image/svg+xml</dc:format>
    <dc:creator>
     <cc:Agent>
      <dc:title>Matplotlib v3.10.0, https://matplotlib.org/</dc:title>
     </cc:Agent>
    </dc:creator>
   </cc:Work>
  </rdf:RDF>
 </metadata>
 <defs>
  <style type="text/css">*{stroke-linejoin: round; stroke-linecap: butt}</style>
 </defs>
 <g id="figure_1">
  <g id="patch_1">
   <path d="M 0 504 
L 864 504 
L 864 0 
L 0 0 
z
" style="fill: #ffffff"/>
  </g>
  <g id="axes_1">
   <g id="patch_2">
    <path d="M 72.09625 447.250625 
L 753.8725 447.250625 
L 753.8725 11.303641 
L 72.09625 11.303641 
z
" style="fill: #ffffff"/>
   </g>
   <g id="matplotlib.axis_1">
    <g id="xtick_1">
     <g id="line2d_1">
      <path d="M 87.193859 447.250625 
L 87.193859 11.303641 
" clip-path="url(#pf819b93a2d)" style="fill: none; stroke: #b0b0b0; stroke-width: 0.8; stroke-linecap: square"/>
     </g>
     <g id="line2d_2">
      <defs>
       <path id="mcb0f9485a5" d="M 0 0 
L 0 3.5 
" style="stroke: #000000; stroke-width: 0.8"/>
      </defs>
      <g>
       <use xlink:href="#mcb0f9485a5" x="87.193859" y="447.250625" style="stroke: #000000; stroke-width: 0.8"/>
      </g>
     </g>
     <g id="text_1">
      <!-- 0.0 -->
      <g transform="translate(76.061672 464.888438) scale(0.14 -0.14)">
       <defs>
        <path id="DejaVuSans-30" d="M 2034 4250 
Q 1547 4250 1301 3770 
Q 1056 3291 1056 2328 
Q 1056 1369 1301 889 
Q 1547 409 2034 409 
Q 2525 409 2770 889 
Q 3016 1369 3016 2328 
Q 3016 3291 2770 3770 
Q 2525 4250 2034 4250 
z
M 2034 4750 
Q 2819 4750 3233 4129 
Q 3647 3509 3647 2328 
Q 3647 1150 3233 529 
Q 2819 -91 2034 -91 
Q 1250 -91 836 529 
Q 422 1150 422 2328 
Q 422 3509 836 4129 
Q 1250 4750 2034 4750 
z
" transform="scale(0.015625)"/>
        <path id="DejaVuSans-2e" d="M 684 794 
L 1344 794 
L 1344 0 
L 684 0 
L 684 794 
z
" transform="scale(0.015625)"/>
       </defs>
       <use xlink:href="#DejaVuSans-30"/>
       <use xlink:href="#DejaVuSans-2e" transform="translate(63.623047 0)"/>
       <use xlink:href="#DejaVuSans-30" transform="translate(95.410156 0)"/>
      </g>
     </g>
    </g>
    <g id="xtick_2">
     <g id="line2d_3">
      <path d="M 166.654961 447.250625 
L 166.654961 11.303641 
" clip-path="url(#pf819b93a2d)" style="fill: none; stroke: #b0b0b0; stroke-width: 0.8; stroke-linecap: square"/>
     </g>
     <g id="line2d_4">
      <g>
       <use xlink:href="#mcb0f9485a5" x="166.654961" y="447.250625" style="stroke: #000000; stroke-width: 0.8"/>
      </g>
     </g>
     <g id="text_2">
      <!-- 0.5 -->
      <g transform="translate(155.522773 464.888438) scale(0.14 -0.14)">
       <defs>
        <path id="DejaVuSans-35" d="M 691 4666 
L 3169 4666 
L 3169 4134 
L 1269 4134 
L 1269 2991 
Q 1406 3038 1543 3061 
Q 1681 3084 1819 3084 
Q 2600 3084 3056 2656 
Q 3513 2228 3513 1497 
Q 3513 744 3044 326 
Q 2575 -91 1722 -91 
Q 1428 -91 1123 -41 
Q 819 9 494 109 
L 494 744 
Q 775 591 1075 516 
Q 1375 441 1709 441 
Q 2250 441 2565 725 
Q 2881 1009 2881 1497 
Q 2881 1984 2565 2268 
Q 2250 2553 1709 2553 
Q 1456 2553 1204 2497 
Q 953 2441 691 2322 
L 691 4666 
z
" transform="scale(0.015625)"/>
       </defs>
       <use xlink:href="#DejaVuSans-30"/>
       <use xlink:href="#DejaVuSans-2e" transform="translate(63.623047 0)"/>
       <use xlink:href="#DejaVuSans-35" transform="translate(95.410156 0)"/>
      </g>
     </g>
    </g>
    <g id="xtick_3">
     <g id="line2d_5">
      <path d="M 246.116062 447.250625 
L 246.116062 11.303641 
" clip-path="url(#pf819b93a2d)" style="fill: none; stroke: #b0b0b0; stroke-width: 0.8; stroke-linecap: square"/>
     </g>
     <g id="line2d_6">
      <g>
       <use xlink:href="#mcb0f9485a5" x="246.116062" y="447.250625" style="stroke: #000000; stroke-width: 0.8"/>
      </g>
     </g>
     <g id="text_3">
      <!-- 1.0 -->
      <g transform="translate(234.983875 464.888438) scale(0.14 -0.14)">
       <defs>
        <path id="DejaVuSans-31" d="M 794 531 
L 1825 531 
L 1825 4091 
L 703 3866 
L 703 4441 
L 1819 4666 
L 2450 4666 
L 2450 531 
L 3481 531 
L 3481 0 
L 794 0 
L 794 531 
z
" transform="scale(0.015625)"/>
       </defs>
       <use xlink:href="#DejaVuSans-31"/>
       <use xlink:href="#DejaVuSans-2e" transform="translate(63.623047 0)"/>
       <use xlink:href="#DejaVuSans-30" transform="translate(95.410156 0)"/>
      </g>
     </g>
    </g>
    <g id="xtick_4">
     <g id="line2d_7">
      <path d="M 325.577163 447.250625 
L 325.577163 11.303641 
" clip-path="url(#pf819b93a2d)" style="fill: none; stroke: #b0b0b0; stroke-width: 0.8; stroke-linecap: square"/>
     </g>
     <g id="line2d_8">
      <g>
       <use xlink:href="#mcb0f9485a5" x="325.577163" y="447.250625" style="stroke: #000000; stroke-width: 0.8"/>
      </g>
     </g>
     <g id="text_4">
      <!-- 1.5 -->
      <g transform="translate(314.444976 464.888438) scale(0.14 -0.14)">
       <use xlink:href="#DejaVuSans-31"/>
       <use xlink:href="#DejaVuSans-2e" transform="translate(63.623047 0)"/>
       <use xlink:href="#DejaVuSans-35" transform="translate(95.410156 0)"/>
      </g>
     </g>
    </g>
    <g id="xtick_5">
     <g id="line2d_9">
      <path d="M 405.038265 447.250625 
L 405.038265 11.303641 
" clip-path="url(#pf819b93a2d)" style="fill: none; stroke: #b0b0b0; stroke-width: 0.8; stroke-linecap: square"/>
     </g>
     <g id="line2d_10">
      <g>
       <use xlink:href="#mcb0f9485a5" x="405.038265" y="447.250625" style="stroke: #000000; stroke-width: 0.8"/>
      </g>
     </g>
     <g id="text_5">
      <!-- 2.0 -->
      <g transform="translate(393.906077 464.888438) scale(0.14 -0.14)">
       <defs>
        <path id="DejaVuSans-32" d="M 1228 531 
L 3431 531 
L 3431 0 
L 469 0 
L 469 531 
Q 828 903 1448 1529 
Q 2069 2156 2228 2338 
Q 2531 2678 2651 2914 
Q 2772 3150 2772 3378 
Q 2772 3750 2511 3984 
Q 2250 4219 1831 4219 
Q 1534 4219 1204 4116 
Q 875 4013 500 3803 
L 500 4441 
Q 881 4594 1212 4672 
Q 1544 4750 1819 4750 
Q 2544 4750 2975 4387 
Q 3406 4025 3406 3419 
Q 3406 3131 3298 2873 
Q 3191 2616 2906 2266 
Q 2828 2175 2409 1742 
Q 1991 1309 1228 531 
z
" transform="scale(0.015625)"/>
       </defs>
       <use xlink:href="#DejaVuSans-32"/>
       <use xlink:href="#DejaVuSans-2e" transform="translate(63.623047 0)"/>
       <use xlink:href="#DejaVuSans-30" transform="translate(95.410156 0)"/>
      </g>
     </g>
    </g>
    <g id="xtick_6">
     <g id="line2d_11">
      <path d="M 484.499366 447.250625 
L 484.499366 11.303641 
" clip-path="url(#pf819b93a2d)" style="fill: none; stroke: #b0b0b0; stroke-width: 0.8; stroke-linecap: square"/>
     </g>
     <g id="line2d_12">
      <g>
       <use xlink:href="#mcb0f9485a5" x="484.499366" y="447.250625" style="stroke: #000000; stroke-width: 0.8"/>
      </g>
     </g>
     <g id="text_6">
      <!-- 2.5 -->
      <g transform="translate(473.367179 464.888438) scale(0.14 -0.14)">
       <use xlink:href="#DejaVuSans-32"/>
       <use xlink:href="#DejaVuSans-2e" transform="translate(63.623047 0)"/>
       <use xlink:href="#DejaVuSans-35" transform="translate(95.410156 0)"/>
      </g>
     </g>
    </g>
    <g id="xtick_7">
     <g id="line2d_13">
      <path d="M 563.960468 447.250625 
L 563.960468 11.303641 
" clip-path="url(#pf819b93a2d)" style="fill: none; stroke: #b0b0b0; stroke-width: 0.8; stroke-linecap: square"/>
     </g>
     <g id="line2d_14">
      <g>
       <use xlink:href="#mcb0f9485a5" x="563.960468" y="447.250625" style="stroke: #000000; stroke-width: 0.8"/>
      </g>
     </g>
     <g id="text_7">
      <!-- 3.0 -->
      <g transform="translate(552.82828 464.888438) scale(0.14 -0.14)">
       <defs>
        <path id="DejaVuSans-33" d="M 2597 2516 
Q 3050 2419 3304 2112 
Q 3559 1806 3559 1356 
Q 3559 666 3084 287 
Q 2609 -91 1734 -91 
Q 1441 -91 1130 -33 
Q 819 25 488 141 
L 488 750 
Q 750 597 1062 519 
Q 1375 441 1716 441 
Q 2309 441 2620 675 
Q 2931 909 2931 1356 
Q 2931 1769 2642 2001 
Q 2353 2234 1838 2234 
L 1294 2234 
L 1294 2753 
L 1863 2753 
Q 2328 2753 2575 2939 
Q 2822 3125 2822 3475 
Q 2822 3834 2567 4026 
Q 2313 4219 1838 4219 
Q 1578 4219 1281 4162 
Q 984 4106 628 3988 
L 628 4550 
Q 988 4650 1302 4700 
Q 1616 4750 1894 4750 
Q 2613 4750 3031 4423 
Q 3450 4097 3450 3541 
Q 3450 3153 3228 2886 
Q 3006 2619 2597 2516 
z
" transform="scale(0.015625)"/>
       </defs>
       <use xlink:href="#DejaVuSans-33"/>
       <use xlink:href="#DejaVuSans-2e" transform="translate(63.623047 0)"/>
       <use xlink:href="#DejaVuSans-30" transform="translate(95.410156 0)"/>
      </g>
     </g>
    </g>
    <g id="xtick_8">
     <g id="line2d_15">
      <path d="M 643.421569 447.250625 
L 643.421569 11.303641 
" clip-path="url(#pf819b93a2d)" style="fill: none; stroke: #b0b0b0; stroke-width: 0.8; stroke-linecap: square"/>
     </g>
     <g id="line2d_16">
      <g>
       <use xlink:href="#mcb0f9485a5" x="643.421569" y="447.250625" style="stroke: #000000; stroke-width: 0.8"/>
      </g>
     </g>
     <g id="text_8">
      <!-- 3.5 -->
      <g transform="translate(632.289382 464.888438) scale(0.14 -0.14)">
       <use xlink:href="#DejaVuSans-33"/>
       <use xlink:href="#DejaVuSans-2e" transform="translate(63.623047 0)"/>
       <use xlink:href="#DejaVuSans-35" transform="translate(95.410156 0)"/>
      </g>
     </g>
    </g>
    <g id="xtick_9">
     <g id="line2d_17">
      <path d="M 722.88267 447.250625 
L 722.88267 11.303641 
" clip-path="url(#pf819b93a2d)" style="fill: none; stroke: #b0b0b0; stroke-width: 0.8; stroke-linecap: square"/>
     </g>
     <g id="line2d_18">
      <g>
       <use xlink:href="#mcb0f9485a5" x="722.88267" y="447.250625" style="stroke: #000000; stroke-width: 0.8"/>
      </g>
     </g>
     <g id="text_9">
      <!-- 4.0 -->
      <g transform="translate(711.750483 464.888438) scale(0.14 -0.14)">
       <defs>
        <path id="DejaVuSans-34" d="M 2419 4116 
L 825 1625 
L 2419 1625 
L 2419 4116 
z
M 2253 4666 
L 3047 4666 
L 3047 1625 
L 3713 1625 
L 3713 1100 
L 3047 1100 
L 3047 0 
L 2419 0 
L 2419 1100 
L 313 1100 
L 313 1709 
L 2253 4666 
z
" transform="scale(0.015625)"/>
       </defs>
       <use xlink:href="#DejaVuSans-34"/>
       <use xlink:href="#DejaVuSans-2e" transform="translate(63.623047 0)"/>
       <use xlink:href="#DejaVuSans-30" transform="translate(95.410156 0)"/>
      </g>
     </g>
    </g>
    <g id="text_10">
     <!-- $R_{q0}(\mathcal{M})$ -->
     <g transform="translate(377.384375 487) scale(0.2 -0.2)">
      <defs>
       <path id="DejaVuSans-Oblique-52" d="M 1613 4147 
L 1294 2491 
L 2106 2491 
Q 2584 2491 2879 2755 
Q 3175 3019 3175 3444 
Q 3175 3784 2976 3965 
Q 2778 4147 2406 4147 
L 1613 4147 
z
M 2772 2241 
Q 2972 2194 3105 2009 
Q 3238 1825 3413 1275 
L 3809 0 
L 3144 0 
L 2778 1197 
Q 2638 1659 2453 1815 
Q 2269 1972 1888 1972 
L 1191 1972 
L 806 0 
L 172 0 
L 1081 4666 
L 2503 4666 
Q 3150 4666 3495 4373 
Q 3841 4081 3841 3531 
Q 3841 3044 3547 2687 
Q 3253 2331 2772 2241 
z
" transform="scale(0.015625)"/>
       <path id="DejaVuSans-Oblique-71" d="M 2669 525 
Q 2438 222 2123 65 
Q 1809 -91 1428 -91 
Q 897 -91 595 267 
Q 294 625 294 1253 
Q 294 1759 480 2231 
Q 666 2703 1013 3078 
Q 1238 3322 1530 3453 
Q 1822 3584 2144 3584 
Q 2531 3584 2781 3431 
Q 3031 3278 3144 2969 
L 3244 3494 
L 3822 3494 
L 2888 -1319 
L 2309 -1319 
L 2669 525 
z
M 891 1338 
Q 891 875 1084 633 
Q 1278 391 1644 391 
Q 2188 391 2572 911 
Q 2956 1431 2956 2175 
Q 2956 2625 2757 2864 
Q 2559 3103 2188 3103 
Q 1916 3103 1684 2976 
Q 1453 2850 1281 2606 
Q 1100 2350 995 2006 
Q 891 1663 891 1338 
z
" transform="scale(0.015625)"/>
       <path id="DejaVuSans-28" d="M 1984 4856 
Q 1566 4138 1362 3434 
Q 1159 2731 1159 2009 
Q 1159 1288 1364 580 
Q 1569 -128 1984 -844 
L 1484 -844 
Q 1016 -109 783 600 
Q 550 1309 550 2009 
Q 550 2706 781 3412 
Q 1013 4119 1484 4856 
L 1984 4856 
z
" transform="scale(0.015625)"/>
       <path id="STIXNonUnicode-Italic-e239" d="M 7123 346 
L 7219 224 
Q 6912 -205 6310 -205 
Q 6208 -205 6096 -169 
Q 5984 -134 5865 -12 
Q 5747 109 5747 307 
Q 5747 384 5779 653 
L 6061 3181 
L 6042 3181 
L 3405 51 
L 3309 51 
Q 2682 1382 2413 2650 
L 2406 2650 
Q 2400 2611 2345 2390 
Q 2291 2170 2265 2061 
Q 2240 1952 2179 1725 
Q 2118 1498 2060 1338 
Q 2003 1178 1926 976 
Q 1850 774 1760 592 
Q 1670 410 1568 250 
Q 1229 -288 813 -288 
Q 576 -288 416 -131 
Q 256 26 256 250 
Q 256 422 345 528 
Q 435 634 595 634 
Q 698 634 768 576 
Q 838 518 867 451 
Q 896 384 947 326 
Q 998 269 1062 269 
Q 1274 269 1446 570 
Q 1555 762 1673 1088 
Q 1792 1414 1881 1731 
Q 1971 2048 2076 2483 
Q 2182 2918 2236 3187 
Q 2291 3456 2371 3840 
Q 2451 4224 2464 4294 
L 2656 4294 
Q 2931 3136 3168 2329 
Q 3405 1523 3738 838 
L 6662 4294 
L 6835 4294 
L 6445 730 
Q 6432 614 6432 544 
Q 6432 173 6714 173 
Q 6950 173 7123 346 
z
" transform="scale(0.015625)"/>
       <path id="DejaVuSans-29" d="M 513 4856 
L 1013 4856 
Q 1481 4119 1714 3412 
Q 1947 2706 1947 2009 
Q 1947 1309 1714 600 
Q 1481 -109 1013 -844 
L 513 -844 
Q 928 -128 1133 580 
Q 1338 1288 1338 2009 
Q 1338 2731 1133 3434 
Q 928 4138 513 4856 
z
" transform="scale(0.015625)"/>
      </defs>
      <use xlink:href="#DejaVuSans-Oblique-52" transform="translate(0 0.125)"/>
      <use xlink:href="#DejaVuSans-Oblique-71" transform="translate(69.482422 -16.28125) scale(0.7)"/>
      <use xlink:href="#DejaVuSans-30" transform="translate(113.916016 -16.28125) scale(0.7)"/>
      <use xlink:href="#DejaVuSans-28" transform="translate(161.186523 0.125)"/>
      <use xlink:href="#STIXNonUnicode-Italic-e239" transform="translate(200.200195 0.125)"/>
      <use xlink:href="#DejaVuSans-29" transform="translate(316.800186 0.125)"/>
     </g>
    </g>
   </g>
   <g id="matplotlib.axis_2">
    <g id="ytick_1">
     <g id="line2d_19">
      <path d="M 72.09625 422.495382 
L 753.8725 422.495382 
" clip-path="url(#pf819b93a2d)" style="fill: none; stroke: #b0b0b0; stroke-width: 0.8; stroke-linecap: square"/>
     </g>
     <g id="line2d_20">
      <defs>
       <path id="m89306271c1" d="M 0 0 
L -3.5 0 
" style="stroke: #000000; stroke-width: 0.8"/>
      </defs>
      <g>
       <use xlink:href="#m89306271c1" x="72.09625" y="422.495382" style="stroke: #000000; stroke-width: 0.8"/>
      </g>
     </g>
     <g id="text_11">
      <!-- $\mathdefault{10^{4}}$ -->
      <g transform="translate(40.45625 427.814288) scale(0.14 -0.14)">
       <use xlink:href="#DejaVuSans-31" transform="translate(0 0.684375)"/>
       <use xlink:href="#DejaVuSans-30" transform="translate(63.623047 0.684375)"/>
       <use xlink:href="#DejaVuSans-34" transform="translate(128.203125 38.965625) scale(0.7)"/>
      </g>
     </g>
    </g>
    <g id="ytick_2">
     <g id="line2d_21">
      <path d="M 72.09625 395.405401 
L 753.8725 395.405401 
" clip-path="url(#pf819b93a2d)" style="fill: none; stroke: #b0b0b0; stroke-width: 0.8; stroke-linecap: square"/>
     </g>
     <g id="line2d_22">
      <g>
       <use xlink:href="#m89306271c1" x="72.09625" y="395.405401" style="stroke: #000000; stroke-width: 0.8"/>
      </g>
     </g>
     <g id="text_12">
      <!-- $\mathdefault{10^{5}}$ -->
      <g transform="translate(40.45625 400.724308) scale(0.14 -0.14)">
       <use xlink:href="#DejaVuSans-31" transform="translate(0 0.684375)"/>
       <use xlink:href="#DejaVuSans-30" transform="translate(63.623047 0.684375)"/>
       <use xlink:href="#DejaVuSans-35" transform="translate(128.203125 38.965625) scale(0.7)"/>
      </g>
     </g>
    </g>
    <g id="ytick_3">
     <g id="line2d_23">
      <path d="M 72.09625 368.315421 
L 753.8725 368.315421 
" clip-path="url(#pf819b93a2d)" style="fill: none; stroke: #b0b0b0; stroke-width: 0.8; stroke-linecap: square"/>
     </g>
     <g id="line2d_24">
      <g>
       <use xlink:href="#m89306271c1" x="72.09625" y="368.315421" style="stroke: #000000; stroke-width: 0.8"/>
      </g>
     </g>
     <g id="text_13">
      <!-- $\mathdefault{10^{6}}$ -->
      <g transform="translate(40.45625 373.634328) scale(0.14 -0.14)">
       <defs>
        <path id="DejaVuSans-36" d="M 2113 2584 
Q 1688 2584 1439 2293 
Q 1191 2003 1191 1497 
Q 1191 994 1439 701 
Q 1688 409 2113 409 
Q 2538 409 2786 701 
Q 3034 994 3034 1497 
Q 3034 2003 2786 2293 
Q 2538 2584 2113 2584 
z
M 3366 4563 
L 3366 3988 
Q 3128 4100 2886 4159 
Q 2644 4219 2406 4219 
Q 1781 4219 1451 3797 
Q 1122 3375 1075 2522 
Q 1259 2794 1537 2939 
Q 1816 3084 2150 3084 
Q 2853 3084 3261 2657 
Q 3669 2231 3669 1497 
Q 3669 778 3244 343 
Q 2819 -91 2113 -91 
Q 1303 -91 875 529 
Q 447 1150 447 2328 
Q 447 3434 972 4092 
Q 1497 4750 2381 4750 
Q 2619 4750 2861 4703 
Q 3103 4656 3366 4563 
z
" transform="scale(0.015625)"/>
       </defs>
       <use xlink:href="#DejaVuSans-31" transform="translate(0 0.765625)"/>
       <use xlink:href="#DejaVuSans-30" transform="translate(63.623047 0.765625)"/>
       <use xlink:href="#DejaVuSans-36" transform="translate(128.203125 39.046875) scale(0.7)"/>
      </g>
     </g>
    </g>
    <g id="ytick_4">
     <g id="line2d_25">
      <path d="M 72.09625 341.225441 
L 753.8725 341.225441 
" clip-path="url(#pf819b93a2d)" style="fill: none; stroke: #b0b0b0; stroke-width: 0.8; stroke-linecap: square"/>
     </g>
     <g id="line2d_26">
      <g>
       <use xlink:href="#m89306271c1" x="72.09625" y="341.225441" style="stroke: #000000; stroke-width: 0.8"/>
      </g>
     </g>
     <g id="text_14">
      <!-- $\mathdefault{10^{7}}$ -->
      <g transform="translate(40.45625 346.544348) scale(0.14 -0.14)">
       <defs>
        <path id="DejaVuSans-37" d="M 525 4666 
L 3525 4666 
L 3525 4397 
L 1831 0 
L 1172 0 
L 2766 4134 
L 525 4134 
L 525 4666 
z
" transform="scale(0.015625)"/>
       </defs>
       <use xlink:href="#DejaVuSans-31" transform="translate(0 0.684375)"/>
       <use xlink:href="#DejaVuSans-30" transform="translate(63.623047 0.684375)"/>
       <use xlink:href="#DejaVuSans-37" transform="translate(128.203125 38.965625) scale(0.7)"/>
      </g>
     </g>
    </g>
    <g id="ytick_5">
     <g id="line2d_27">
      <path d="M 72.09625 314.135461 
L 753.8725 314.135461 
" clip-path="url(#pf819b93a2d)" style="fill: none; stroke: #b0b0b0; stroke-width: 0.8; stroke-linecap: square"/>
     </g>
     <g id="line2d_28">
      <g>
       <use xlink:href="#m89306271c1" x="72.09625" y="314.135461" style="stroke: #000000; stroke-width: 0.8"/>
      </g>
     </g>
     <g id="text_15">
      <!-- $\mathdefault{10^{8}}$ -->
      <g transform="translate(40.45625 319.454368) scale(0.14 -0.14)">
       <defs>
        <path id="DejaVuSans-38" d="M 2034 2216 
Q 1584 2216 1326 1975 
Q 1069 1734 1069 1313 
Q 1069 891 1326 650 
Q 1584 409 2034 409 
Q 2484 409 2743 651 
Q 3003 894 3003 1313 
Q 3003 1734 2745 1975 
Q 2488 2216 2034 2216 
z
M 1403 2484 
Q 997 2584 770 2862 
Q 544 3141 544 3541 
Q 544 4100 942 4425 
Q 1341 4750 2034 4750 
Q 2731 4750 3128 4425 
Q 3525 4100 3525 3541 
Q 3525 3141 3298 2862 
Q 3072 2584 2669 2484 
Q 3125 2378 3379 2068 
Q 3634 1759 3634 1313 
Q 3634 634 3220 271 
Q 2806 -91 2034 -91 
Q 1263 -91 848 271 
Q 434 634 434 1313 
Q 434 1759 690 2068 
Q 947 2378 1403 2484 
z
M 1172 3481 
Q 1172 3119 1398 2916 
Q 1625 2713 2034 2713 
Q 2441 2713 2670 2916 
Q 2900 3119 2900 3481 
Q 2900 3844 2670 4047 
Q 2441 4250 2034 4250 
Q 1625 4250 1398 4047 
Q 1172 3844 1172 3481 
z
" transform="scale(0.015625)"/>
       </defs>
       <use xlink:href="#DejaVuSans-31" transform="translate(0 0.765625)"/>
       <use xlink:href="#DejaVuSans-30" transform="translate(63.623047 0.765625)"/>
       <use xlink:href="#DejaVuSans-38" transform="translate(128.203125 39.046875) scale(0.7)"/>
      </g>
     </g>
    </g>
    <g id="ytick_6">
     <g id="line2d_29">
      <path d="M 72.09625 287.045481 
L 753.8725 287.045481 
" clip-path="url(#pf819b93a2d)" style="fill: none; stroke: #b0b0b0; stroke-width: 0.8; stroke-linecap: square"/>
     </g>
     <g id="line2d_30">
      <g>
       <use xlink:href="#m89306271c1" x="72.09625" y="287.045481" style="stroke: #000000; stroke-width: 0.8"/>
      </g>
     </g>
     <g id="text_16">
      <!-- $\mathdefault{10^{9}}$ -->
      <g transform="translate(40.45625 292.364387) scale(0.14 -0.14)">
       <defs>
        <path id="DejaVuSans-39" d="M 703 97 
L 703 672 
Q 941 559 1184 500 
Q 1428 441 1663 441 
Q 2288 441 2617 861 
Q 2947 1281 2994 2138 
Q 2813 1869 2534 1725 
Q 2256 1581 1919 1581 
Q 1219 1581 811 2004 
Q 403 2428 403 3163 
Q 403 3881 828 4315 
Q 1253 4750 1959 4750 
Q 2769 4750 3195 4129 
Q 3622 3509 3622 2328 
Q 3622 1225 3098 567 
Q 2575 -91 1691 -91 
Q 1453 -91 1209 -44 
Q 966 3 703 97 
z
M 1959 2075 
Q 2384 2075 2632 2365 
Q 2881 2656 2881 3163 
Q 2881 3666 2632 3958 
Q 2384 4250 1959 4250 
Q 1534 4250 1286 3958 
Q 1038 3666 1038 3163 
Q 1038 2656 1286 2365 
Q 1534 2075 1959 2075 
z
" transform="scale(0.015625)"/>
       </defs>
       <use xlink:href="#DejaVuSans-31" transform="translate(0 0.765625)"/>
       <use xlink:href="#DejaVuSans-30" transform="translate(63.623047 0.765625)"/>
       <use xlink:href="#DejaVuSans-39" transform="translate(128.203125 39.046875) scale(0.7)"/>
      </g>
     </g>
    </g>
    <g id="ytick_7">
     <g id="line2d_31">
      <path d="M 72.09625 259.955501 
L 753.8725 259.955501 
" clip-path="url(#pf819b93a2d)" style="fill: none; stroke: #b0b0b0; stroke-width: 0.8; stroke-linecap: square"/>
     </g>
     <g id="line2d_32">
      <g>
       <use xlink:href="#m89306271c1" x="72.09625" y="259.955501" style="stroke: #000000; stroke-width: 0.8"/>
      </g>
     </g>
     <g id="text_17">
      <!-- $\mathdefault{10^{10}}$ -->
      <g transform="translate(34.15625 265.274407) scale(0.14 -0.14)">
       <use xlink:href="#DejaVuSans-31" transform="translate(0 0.765625)"/>
       <use xlink:href="#DejaVuSans-30" transform="translate(63.623047 0.765625)"/>
       <use xlink:href="#DejaVuSans-31" transform="translate(128.203125 39.046875) scale(0.7)"/>
       <use xlink:href="#DejaVuSans-30" transform="translate(172.739258 39.046875) scale(0.7)"/>
      </g>
     </g>
    </g>
    <g id="ytick_8">
     <g id="line2d_33">
      <path d="M 72.09625 232.865521 
L 753.8725 232.865521 
" clip-path="url(#pf819b93a2d)" style="fill: none; stroke: #b0b0b0; stroke-width: 0.8; stroke-linecap: square"/>
     </g>
     <g id="line2d_34">
      <g>
       <use xlink:href="#m89306271c1" x="72.09625" y="232.865521" style="stroke: #000000; stroke-width: 0.8"/>
      </g>
     </g>
     <g id="text_18">
      <!-- $\mathdefault{10^{11}}$ -->
      <g transform="translate(34.15625 238.184427) scale(0.14 -0.14)">
       <use xlink:href="#DejaVuSans-31" transform="translate(0 0.684375)"/>
       <use xlink:href="#DejaVuSans-30" transform="translate(63.623047 0.684375)"/>
       <use xlink:href="#DejaVuSans-31" transform="translate(128.203125 38.965625) scale(0.7)"/>
       <use xlink:href="#DejaVuSans-31" transform="translate(172.739258 38.965625) scale(0.7)"/>
      </g>
     </g>
    </g>
    <g id="ytick_9">
     <g id="line2d_35">
      <path d="M 72.09625 205.775541 
L 753.8725 205.775541 
" clip-path="url(#pf819b93a2d)" style="fill: none; stroke: #b0b0b0; stroke-width: 0.8; stroke-linecap: square"/>
     </g>
     <g id="line2d_36">
      <g>
       <use xlink:href="#m89306271c1" x="72.09625" y="205.775541" style="stroke: #000000; stroke-width: 0.8"/>
      </g>
     </g>
     <g id="text_19">
      <!-- $\mathdefault{10^{12}}$ -->
      <g transform="translate(34.15625 211.094447) scale(0.14 -0.14)">
       <use xlink:href="#DejaVuSans-31" transform="translate(0 0.765625)"/>
       <use xlink:href="#DejaVuSans-30" transform="translate(63.623047 0.765625)"/>
       <use xlink:href="#DejaVuSans-31" transform="translate(128.203125 39.046875) scale(0.7)"/>
       <use xlink:href="#DejaVuSans-32" transform="translate(172.739258 39.046875) scale(0.7)"/>
      </g>
     </g>
    </g>
    <g id="ytick_10">
     <g id="line2d_37">
      <path d="M 72.09625 178.685561 
L 753.8725 178.685561 
" clip-path="url(#pf819b93a2d)" style="fill: none; stroke: #b0b0b0; stroke-width: 0.8; stroke-linecap: square"/>
     </g>
     <g id="line2d_38">
      <g>
       <use xlink:href="#m89306271c1" x="72.09625" y="178.685561" style="stroke: #000000; stroke-width: 0.8"/>
      </g>
     </g>
     <g id="text_20">
      <!-- $\mathdefault{10^{13}}$ -->
      <g transform="translate(34.15625 184.004467) scale(0.14 -0.14)">
       <use xlink:href="#DejaVuSans-31" transform="translate(0 0.765625)"/>
       <use xlink:href="#DejaVuSans-30" transform="translate(63.623047 0.765625)"/>
       <use xlink:href="#DejaVuSans-31" transform="translate(128.203125 39.046875) scale(0.7)"/>
       <use xlink:href="#DejaVuSans-33" transform="translate(172.739258 39.046875) scale(0.7)"/>
      </g>
     </g>
    </g>
    <g id="ytick_11">
     <g id="line2d_39">
      <path d="M 72.09625 151.595581 
L 753.8725 151.595581 
" clip-path="url(#pf819b93a2d)" style="fill: none; stroke: #b0b0b0; stroke-width: 0.8; stroke-linecap: square"/>
     </g>
     <g id="line2d_40">
      <g>
       <use xlink:href="#m89306271c1" x="72.09625" y="151.595581" style="stroke: #000000; stroke-width: 0.8"/>
      </g>
     </g>
     <g id="text_21">
      <!-- $\mathdefault{10^{14}}$ -->
      <g transform="translate(34.15625 156.914487) scale(0.14 -0.14)">
       <use xlink:href="#DejaVuSans-31" transform="translate(0 0.684375)"/>
       <use xlink:href="#DejaVuSans-30" transform="translate(63.623047 0.684375)"/>
       <use xlink:href="#DejaVuSans-31" transform="translate(128.203125 38.965625) scale(0.7)"/>
       <use xlink:href="#DejaVuSans-34" transform="translate(172.739258 38.965625) scale(0.7)"/>
      </g>
     </g>
    </g>
    <g id="ytick_12">
     <g id="line2d_41">
      <path d="M 72.09625 124.505601 
L 753.8725 124.505601 
" clip-path="url(#pf819b93a2d)" style="fill: none; stroke: #b0b0b0; stroke-width: 0.8; stroke-linecap: square"/>
     </g>
     <g id="line2d_42">
      <g>
       <use xlink:href="#m89306271c1" x="72.09625" y="124.505601" style="stroke: #000000; stroke-width: 0.8"/>
      </g>
     </g>
     <g id="text_22">
      <!-- $\mathdefault{10^{15}}$ -->
      <g transform="translate(34.15625 129.824507) scale(0.14 -0.14)">
       <use xlink:href="#DejaVuSans-31" transform="translate(0 0.684375)"/>
       <use xlink:href="#DejaVuSans-30" transform="translate(63.623047 0.684375)"/>
       <use xlink:href="#DejaVuSans-31" transform="translate(128.203125 38.965625) scale(0.7)"/>
       <use xlink:href="#DejaVuSans-35" transform="translate(172.739258 38.965625) scale(0.7)"/>
      </g>
     </g>
    </g>
    <g id="ytick_13">
     <g id="line2d_43">
      <path d="M 72.09625 97.415621 
L 753.8725 97.415621 
" clip-path="url(#pf819b93a2d)" style="fill: none; stroke: #b0b0b0; stroke-width: 0.8; stroke-linecap: square"/>
     </g>
     <g id="line2d_44">
      <g>
       <use xlink:href="#m89306271c1" x="72.09625" y="97.415621" style="stroke: #000000; stroke-width: 0.8"/>
      </g>
     </g>
     <g id="text_23">
      <!-- $\mathdefault{10^{16}}$ -->
      <g transform="translate(34.15625 102.734527) scale(0.14 -0.14)">
       <use xlink:href="#DejaVuSans-31" transform="translate(0 0.765625)"/>
       <use xlink:href="#DejaVuSans-30" transform="translate(63.623047 0.765625)"/>
       <use xlink:href="#DejaVuSans-31" transform="translate(128.203125 39.046875) scale(0.7)"/>
       <use xlink:href="#DejaVuSans-36" transform="translate(172.739258 39.046875) scale(0.7)"/>
      </g>
     </g>
    </g>
    <g id="ytick_14">
     <g id="line2d_45">
      <path d="M 72.09625 70.325641 
L 753.8725 70.325641 
" clip-path="url(#pf819b93a2d)" style="fill: none; stroke: #b0b0b0; stroke-width: 0.8; stroke-linecap: square"/>
     </g>
     <g id="line2d_46">
      <g>
       <use xlink:href="#m89306271c1" x="72.09625" y="70.325641" style="stroke: #000000; stroke-width: 0.8"/>
      </g>
     </g>
     <g id="text_24">
      <!-- $\mathdefault{10^{17}}$ -->
      <g transform="translate(34.15625 75.644547) scale(0.14 -0.14)">
       <use xlink:href="#DejaVuSans-31" transform="translate(0 0.684375)"/>
       <use xlink:href="#DejaVuSans-30" transform="translate(63.623047 0.684375)"/>
       <use xlink:href="#DejaVuSans-31" transform="translate(128.203125 38.965625) scale(0.7)"/>
       <use xlink:href="#DejaVuSans-37" transform="translate(172.739258 38.965625) scale(0.7)"/>
      </g>
     </g>
    </g>
    <g id="ytick_15">
     <g id="line2d_47">
      <path d="M 72.09625 43.235661 
L 753.8725 43.235661 
" clip-path="url(#pf819b93a2d)" style="fill: none; stroke: #b0b0b0; stroke-width: 0.8; stroke-linecap: square"/>
     </g>
     <g id="line2d_48">
      <g>
       <use xlink:href="#m89306271c1" x="72.09625" y="43.235661" style="stroke: #000000; stroke-width: 0.8"/>
      </g>
     </g>
     <g id="text_25">
      <!-- $\mathdefault{10^{18}}$ -->
      <g transform="translate(34.15625 48.554567) scale(0.14 -0.14)">
       <use xlink:href="#DejaVuSans-31" transform="translate(0 0.765625)"/>
       <use xlink:href="#DejaVuSans-30" transform="translate(63.623047 0.765625)"/>
       <use xlink:href="#DejaVuSans-31" transform="translate(128.203125 39.046875) scale(0.7)"/>
       <use xlink:href="#DejaVuSans-38" transform="translate(172.739258 39.046875) scale(0.7)"/>
      </g>
     </g>
    </g>
    <g id="ytick_16">
     <g id="line2d_49">
      <path d="M 72.09625 16.145681 
L 753.8725 16.145681 
" clip-path="url(#pf819b93a2d)" style="fill: none; stroke: #b0b0b0; stroke-width: 0.8; stroke-linecap: square"/>
     </g>
     <g id="line2d_50">
      <g>
       <use xlink:href="#m89306271c1" x="72.09625" y="16.145681" style="stroke: #000000; stroke-width: 0.8"/>
      </g>
     </g>
     <g id="text_26">
      <!-- $\mathdefault{10^{19}}$ -->
      <g transform="translate(34.15625 21.464587) scale(0.14 -0.14)">
       <use xlink:href="#DejaVuSans-31" transform="translate(0 0.765625)"/>
       <use xlink:href="#DejaVuSans-30" transform="translate(63.623047 0.765625)"/>
       <use xlink:href="#DejaVuSans-31" transform="translate(128.203125 39.046875) scale(0.7)"/>
       <use xlink:href="#DejaVuSans-39" transform="translate(172.739258 39.046875) scale(0.7)"/>
      </g>
     </g>
    </g>
    <g id="text_27">
     <!-- $\kappa(\mathcal{J}(\mathbf{x*}))$ -->
     <g transform="translate(25.996875 272.677133) rotate(-90) scale(0.2 -0.2)">
      <defs>
       <path id="DejaVuSans-Oblique-3ba" d="M 938 3500 
L 1531 3500 
L 1247 2047 
L 3041 3500 
L 3741 3500 
L 2106 2181 
L 3275 0 
L 2572 0 
L 1628 1806 
L 1122 1403 
L 850 0 
L 256 0 
L 938 3500 
z
" transform="scale(0.015625)"/>
       <path id="STIXNonUnicode-Italic-e236" d="M 5024 4237 
L 4966 4083 
Q 4570 4083 4387 3929 
Q 4205 3776 4096 3411 
L 3290 595 
Q 3091 -83 2614 -425 
Q 2138 -768 1472 -768 
Q 922 -768 560 -537 
Q 198 -307 198 96 
Q 198 339 342 508 
Q 486 678 698 678 
Q 858 678 947 582 
Q 1037 486 1037 326 
Q 1037 179 921 60 
Q 806 -58 806 -96 
Q 806 -512 1510 -512 
Q 1702 -512 1859 -454 
Q 2016 -397 2141 -259 
Q 2266 -122 2349 -6 
Q 2432 109 2515 342 
Q 2598 576 2640 697 
Q 2682 819 2755 1100 
Q 2829 1382 2854 1472 
L 3450 3533 
Q 3475 3610 3475 3686 
Q 3475 3968 3059 3968 
Q 2099 3968 1491 2733 
L 1312 2733 
Q 1901 4237 3200 4237 
L 5024 4237 
z
" transform="scale(0.015625)"/>
       <path id="DejaVuSans-Bold-78" d="M 1422 1791 
L 159 3500 
L 1344 3500 
L 2059 2463 
L 2784 3500 
L 3969 3500 
L 2706 1797 
L 4031 0 
L 2847 0 
L 2059 1106 
L 1281 0 
L 97 0 
L 1422 1791 
z
" transform="scale(0.015625)"/>
       <path id="DejaVuSans-Bold-2a" d="M 3219 3803 
L 2188 3263 
L 3219 2719 
L 2981 2278 
L 1941 2853 
L 1941 1778 
L 1409 1778 
L 1409 2853 
L 366 2278 
L 128 2719 
L 1172 3263 
L 128 3803 
L 366 4244 
L 1409 3675 
L 1409 4750 
L 1941 4750 
L 1941 3675 
L 2981 4244 
L 3219 3803 
z
" transform="scale(0.015625)"/>
      </defs>
      <use xlink:href="#DejaVuSans-Oblique-3ba" transform="translate(0 0.125)"/>
      <use xlink:href="#DejaVuSans-28" transform="translate(58.935547 0.125)"/>
      <use xlink:href="#STIXNonUnicode-Italic-e236" transform="translate(97.949219 0.125)"/>
      <use xlink:href="#DejaVuSans-28" transform="translate(161.149216 0.125)"/>
      <use xlink:href="#DejaVuSans-Bold-78" transform="translate(200.162888 0.125)"/>
      <use xlink:href="#DejaVuSans-Bold-2a" transform="translate(284.147263 0.125)"/>
      <use xlink:href="#DejaVuSans-29" transform="translate(355.924606 0.125)"/>
      <use xlink:href="#DejaVuSans-29" transform="translate(394.938278 0.125)"/>
     </g>
    </g>
   </g>
   <g id="line2d_51">
    <path d="M 103.08608 330.956474 
L 124.458376 351.76957 
L 145.830672 363.327435 
L 167.202968 371.682657 
L 188.575264 378.465729 
L 209.947561 384.35117 
L 231.319857 389.632943 
L 252.692153 394.318794 
L 274.064449 398.072633 
L 295.436746 400.355625 
L 316.809042 401.115388 
L 338.181338 400.984309 
L 359.553634 400.57813 
L 380.925931 400.212337 
L 402.298227 400.019264 
L 423.670523 400.058497 
L 445.042819 400.363983 
L 466.415116 400.957849 
L 487.787412 401.851417 
L 509.159708 403.043496 
L 530.532004 404.520788 
L 551.904301 406.261506 
L 573.276597 408.240745 
L 594.648893 410.435348 
L 616.021189 412.826876 
L 637.393486 415.402477 
L 658.765782 418.154257 
L 680.138078 421.077951 
L 701.510374 424.17162 
L 722.88267 427.434853 
" clip-path="url(#pf819b93a2d)" style="fill: none; stroke: #1f77b4; stroke-width: 2; stroke-linecap: square"/>
   </g>
   <g id="line2d_52">
    <path d="M 103.08608 166.0224 
L 124.458376 207.274515 
L 145.830672 229.795555 
L 167.202968 245.651757 
L 188.575264 258.065798 
L 209.947561 268.378013 
L 231.319857 277.273557 
L 252.692153 285.148561 
L 274.064449 292.251871 
L 295.436746 298.749582 
L 316.809042 304.757926 
L 338.181338 310.361492 
L 359.553634 315.623984 
L 380.925931 320.594914 
L 402.298227 325.313945 
L 423.670523 329.813805 
L 445.042819 334.122291 
L 466.415116 338.263671 
L 487.787412 342.259618 
L 509.159708 346.129769 
L 530.532004 349.891834 
L 551.904301 353.5611 
L 573.276597 357.148934 
L 594.648893 360.65958 
L 616.021189 364.084178 
L 637.393486 367.390889 
L 658.765782 370.512518 
L 680.138078 373.34357 
L 701.510374 375.776938 
L 722.88267 377.78871 
" clip-path="url(#pf819b93a2d)" style="fill: none; stroke: #ff7f0e; stroke-width: 2; stroke-linecap: square"/>
   </g>
   <g id="line2d_53">
    <path d="M 103.08608 73.908318 
L 124.458376 80.851582 
L 145.830672 78.847513 
L 167.202968 76.658825 
L 188.575264 101.21496 
L 209.947561 121.936545 
L 231.319857 138.114684 
L 252.692153 151.605963 
L 274.064449 163.342728 
L 295.436746 173.822693 
L 316.809042 183.371104 
L 338.181338 192.193983 
L 359.553634 200.442048 
L 380.925931 208.225896 
L 402.298227 215.631041 
L 423.670523 222.727283 
L 445.042819 229.575191 
L 466.415116 236.231068 
L 487.787412 242.751145 
L 509.159708 249.194616 
L 530.532004 255.625266 
L 551.904301 262.110239 
L 573.276597 268.714034 
L 594.648893 275.488152 
L 616.021189 282.460055 
L 637.393486 289.628544 
L 658.765782 296.970312 
L 680.138078 304.455567 
L 701.510374 312.06514 
L 722.88267 319.801702 
" clip-path="url(#pf819b93a2d)" style="fill: none; stroke: #2ca02c; stroke-width: 2; stroke-linecap: square"/>
   </g>
   <g id="line2d_54">
    <path d="M 103.08608 71.749904 
L 124.458376 70.694677 
L 145.830672 68.655277 
L 167.202968 74.672835 
L 188.575264 78.356638 
L 209.947561 76.700955 
L 231.319857 85.003133 
L 252.692153 79.76573 
L 274.064449 81.246554 
L 295.436746 83.81707 
L 316.809042 89.717805 
L 338.181338 96.62549 
L 359.553634 104.128128 
L 380.925931 111.361247 
L 402.298227 118.381168 
L 423.670523 126.286207 
L 445.042819 134.691624 
L 466.415116 143.757891 
L 487.787412 153.23278 
L 509.159708 163.004309 
L 530.532004 172.934287 
L 551.904301 182.81656 
L 573.276597 192.505403 
L 594.648893 201.883437 
L 616.021189 210.890348 
L 637.393486 219.53092 
L 658.765782 227.864225 
L 680.138078 235.9798 
L 701.510374 243.976731 
L 722.88267 251.956171 
" clip-path="url(#pf819b93a2d)" style="fill: none; stroke: #d62728; stroke-width: 2; stroke-linecap: square"/>
   </g>
   <g id="line2d_55">
    <path d="M 103.08608 40.781655 
L 124.458376 53.275683 
L 145.830672 68.734381 
L 167.202968 63.338284 
L 188.575264 68.468991 
L 209.947561 68.794877 
L 231.319857 71.216944 
L 252.692153 71.924193 
L 274.064449 71.624495 
L 295.436746 78.510029 
L 316.809042 71.943303 
L 338.181338 75.47507 
L 359.553634 80.709554 
L 380.925931 78.976667 
L 402.298227 81.040452 
L 423.670523 82.412593 
L 445.042819 84.348547 
L 466.415116 89.990382 
L 487.787412 100.943174 
L 509.159708 110.085211 
L 530.532004 114.979093 
L 551.904301 118.600378 
L 573.276597 122.726504 
L 594.648893 127.493908 
L 616.021189 133.945406 
L 637.393486 141.787197 
L 658.765782 150.808862 
L 680.138078 160.650675 
L 701.510374 171.123183 
L 722.88267 182.258256 
" clip-path="url(#pf819b93a2d)" style="fill: none; stroke: #9467bd; stroke-width: 2; stroke-linecap: square"/>
   </g>
   <g id="line2d_56">
    <path d="M 103.08608 40.685827 
L 124.458376 44.05029 
L 145.830672 46.424493 
L 167.202968 53.191567 
L 188.575264 66.073732 
L 209.947561 69.707291 
L 231.319857 66.938753 
L 252.692153 67.900337 
L 274.064449 64.002243 
L 295.436746 66.212945 
L 316.809042 66.120971 
L 338.181338 68.273197 
L 359.553634 67.515386 
L 380.925931 70.135117 
L 402.298227 69.374915 
L 423.670523 73.209337 
L 445.042819 73.514395 
L 466.415116 72.261898 
L 487.787412 79.956222 
L 509.159708 78.412551 
L 530.532004 82.716293 
L 551.904301 76.832666 
L 573.276597 80.013949 
L 594.648893 82.922708 
L 616.021189 79.761376 
L 637.393486 91.203884 
L 658.765782 107.469668 
L 680.138078 119.09354 
L 701.510374 122.794571 
L 722.88267 126.913636 
" clip-path="url(#pf819b93a2d)" style="fill: none; stroke: #8c564b; stroke-width: 2; stroke-linecap: square"/>
   </g>
   <g id="line2d_57">
    <path d="M 103.08608 31.119413 
L 124.458376 41.296393 
L 145.830672 49.123718 
L 167.202968 48.010473 
L 188.575264 47.159005 
L 209.947561 56.671047 
L 231.319857 56.136087 
L 252.692153 56.219989 
L 274.064449 56.009466 
L 295.436746 72.245751 
L 316.809042 67.902579 
L 338.181338 65.869259 
L 359.553634 67.012451 
L 380.925931 65.866215 
L 402.298227 64.432647 
L 423.670523 67.210354 
L 445.042819 71.249982 
L 466.415116 70.918109 
L 487.787412 73.480027 
L 509.159708 74.291478 
L 530.532004 78.50813 
L 551.904301 71.549827 
L 573.276597 77.359122 
L 594.648893 79.545734 
L 616.021189 82.117786 
L 637.393486 82.122433 
L 658.765782 79.985939 
L 680.138078 78.291168 
L 701.510374 81.022059 
L 722.88267 81.629438 
" clip-path="url(#pf819b93a2d)" style="fill: none; stroke: #e377c2; stroke-width: 2; stroke-linecap: square"/>
   </g>
   <g id="patch_3">
    <path d="M 72.09625 447.250625 
L 72.09625 11.303641 
" style="fill: none; stroke: #000000; stroke-width: 0.8; stroke-linejoin: miter; stroke-linecap: square"/>
   </g>
   <g id="patch_4">
    <path d="M 753.8725 447.250625 
L 753.8725 11.303641 
" style="fill: none; stroke: #000000; stroke-width: 0.8; stroke-linejoin: miter; stroke-linecap: square"/>
   </g>
   <g id="patch_5">
    <path d="M 72.09625 447.250625 
L 753.8725 447.250625 
" style="fill: none; stroke: #000000; stroke-width: 0.8; stroke-linejoin: miter; stroke-linecap: square"/>
   </g>
   <g id="patch_6">
    <path d="M 72.09625 11.303641 
L 753.8725 11.303641 
" style="fill: none; stroke: #000000; stroke-width: 0.8; stroke-linejoin: miter; stroke-linecap: square"/>
   </g>
   <g id="legend_1">
    <g id="patch_7">
     <path d="M 765.0725 188.498641 
L 850 188.498641 
Q 853.2 188.498641 853.2 185.298641 
L 853.2 22.503641 
Q 853.2 19.303641 850 19.303641 
L 765.0725 19.303641 
Q 761.8725 19.303641 761.8725 22.503641 
L 761.8725 185.298641 
Q 761.8725 188.498641 765.0725 188.498641 
z
" style="fill: #ffffff; opacity: 0.8; stroke: #cccccc; stroke-linejoin: miter"/>
    </g>
    <g id="line2d_58">
     <path d="M 768.2725 32.261141 
L 784.2725 32.261141 
L 800.2725 32.261141 
" style="fill: none; stroke: #1f77b4; stroke-width: 2; stroke-linecap: square"/>
    </g>
    <g id="text_28">
     <!-- n=2 -->
     <g transform="translate(813.0725 37.861141) scale(0.16 -0.16)">
      <defs>
       <path id="DejaVuSans-6e" d="M 3513 2113 
L 3513 0 
L 2938 0 
L 2938 2094 
Q 2938 2591 2744 2837 
Q 2550 3084 2163 3084 
Q 1697 3084 1428 2787 
Q 1159 2491 1159 1978 
L 1159 0 
L 581 0 
L 581 3500 
L 1159 3500 
L 1159 2956 
Q 1366 3272 1645 3428 
Q 1925 3584 2291 3584 
Q 2894 3584 3203 3211 
Q 3513 2838 3513 2113 
z
" transform="scale(0.015625)"/>
       <path id="DejaVuSans-3d" d="M 678 2906 
L 4684 2906 
L 4684 2381 
L 678 2381 
L 678 2906 
z
M 678 1631 
L 4684 1631 
L 4684 1100 
L 678 1100 
L 678 1631 
z
" transform="scale(0.015625)"/>
      </defs>
      <use xlink:href="#DejaVuSans-6e"/>
      <use xlink:href="#DejaVuSans-3d" transform="translate(63.378906 0)"/>
      <use xlink:href="#DejaVuSans-32" transform="translate(147.167969 0)"/>
     </g>
    </g>
    <g id="line2d_59">
     <path d="M 768.2725 55.746141 
L 784.2725 55.746141 
L 800.2725 55.746141 
" style="fill: none; stroke: #ff7f0e; stroke-width: 2; stroke-linecap: square"/>
    </g>
    <g id="text_29">
     <!-- n=3 -->
     <g transform="translate(813.0725 61.346141) scale(0.16 -0.16)">
      <use xlink:href="#DejaVuSans-6e"/>
      <use xlink:href="#DejaVuSans-3d" transform="translate(63.378906 0)"/>
      <use xlink:href="#DejaVuSans-33" transform="translate(147.167969 0)"/>
     </g>
    </g>
    <g id="line2d_60">
     <path d="M 768.2725 79.231141 
L 784.2725 79.231141 
L 800.2725 79.231141 
" style="fill: none; stroke: #2ca02c; stroke-width: 2; stroke-linecap: square"/>
    </g>
    <g id="text_30">
     <!-- n=4 -->
     <g transform="translate(813.0725 84.831141) scale(0.16 -0.16)">
      <use xlink:href="#DejaVuSans-6e"/>
      <use xlink:href="#DejaVuSans-3d" transform="translate(63.378906 0)"/>
      <use xlink:href="#DejaVuSans-34" transform="translate(147.167969 0)"/>
     </g>
    </g>
    <g id="line2d_61">
     <path d="M 768.2725 102.716141 
L 784.2725 102.716141 
L 800.2725 102.716141 
" style="fill: none; stroke: #d62728; stroke-width: 2; stroke-linecap: square"/>
    </g>
    <g id="text_31">
     <!-- n=5 -->
     <g transform="translate(813.0725 108.316141) scale(0.16 -0.16)">
      <use xlink:href="#DejaVuSans-6e"/>
      <use xlink:href="#DejaVuSans-3d" transform="translate(63.378906 0)"/>
      <use xlink:href="#DejaVuSans-35" transform="translate(147.167969 0)"/>
     </g>
    </g>
    <g id="line2d_62">
     <path d="M 768.2725 126.201141 
L 784.2725 126.201141 
L 800.2725 126.201141 
" style="fill: none; stroke: #9467bd; stroke-width: 2; stroke-linecap: square"/>
    </g>
    <g id="text_32">
     <!-- n=6 -->
     <g transform="translate(813.0725 131.801141) scale(0.16 -0.16)">
      <use xlink:href="#DejaVuSans-6e"/>
      <use xlink:href="#DejaVuSans-3d" transform="translate(63.378906 0)"/>
      <use xlink:href="#DejaVuSans-36" transform="translate(147.167969 0)"/>
     </g>
    </g>
    <g id="line2d_63">
     <path d="M 768.2725 149.686141 
L 784.2725 149.686141 
L 800.2725 149.686141 
" style="fill: none; stroke: #8c564b; stroke-width: 2; stroke-linecap: square"/>
    </g>
    <g id="text_33">
     <!-- n=7 -->
     <g transform="translate(813.0725 155.286141) scale(0.16 -0.16)">
      <use xlink:href="#DejaVuSans-6e"/>
      <use xlink:href="#DejaVuSans-3d" transform="translate(63.378906 0)"/>
      <use xlink:href="#DejaVuSans-37" transform="translate(147.167969 0)"/>
     </g>
    </g>
    <g id="line2d_64">
     <path d="M 768.2725 173.171141 
L 784.2725 173.171141 
L 800.2725 173.171141 
" style="fill: none; stroke: #e377c2; stroke-width: 2; stroke-linecap: square"/>
    </g>
    <g id="text_34">
     <!-- n=8 -->
     <g transform="translate(813.0725 178.771141) scale(0.16 -0.16)">
      <use xlink:href="#DejaVuSans-6e"/>
      <use xlink:href="#DejaVuSans-3d" transform="translate(63.378906 0)"/>
      <use xlink:href="#DejaVuSans-38" transform="translate(147.167969 0)"/>
     </g>
    </g>
   </g>
  </g>
 </g>
 <defs>
  <clipPath id="pf819b93a2d">
   <rect x="72.09625" y="11.303641" width="681.77625" height="435.946984"/>
  </clipPath>
 </defs>
</svg>
