<?xml version="1.0" encoding="utf-8" standalone="no"?>
<!DOCTYPE svg PUBLIC "-//W3C//DTD SVG 1.1//EN"
  "http://www.w3.org/Graphics/SVG/1.1/DTD/svg11.dtd">
<svg xmlns:xlink="http://www.w3.org/1999/xlink" width="864pt" height="504pt" viewBox="0 0 864 504" xmlns="http://www.w3.org/2000/svg" version="1.1">
 <metadata>
  <rdf:RDF xmlns:dc="http://purl.org/dc/elements/1.1/" xmlns:cc="http://creativecommons.org/ns#" xmlns:rdf="http://www.w3.org/1999/02/22-rdf-syntax-ns#">
   <cc:Work>
    <dc:type rdf:resource="http://purl.org/dc/dcmitype/StillImage"/>
    <dc:date>2026-04-10T10:22:45.065763</dc:date>
    <dc:format>image/svg+xml</dc:format>
    <dc:creator>
     <cc:Agent>
      <dc:title>Matplotlib v3.10.0, https://matplotlib.org/</dc:title>
     </cc:Agent>
    </dc:creator>
   </cc:Work>
  </rdf:RDF>
 </metadata>
 <defs>
  <style type="text/css">*{stroke-linejoin: round; stroke-linecap: butt}</style>
 </defs>
 <g id="figure_1">
  <g id="patch_1">
   <path d="M 0 504 
L 864 504 
L 864 0 
L 0 0 
z
" style="fill: #ffffff"/>
  </g>
  <g id="axes_1">
   <g id="patch_2">
    <path d="M 63.420625 447.250625 
L 753.8725 447.250625 
L 753.8725 10.8 
L 63.420625 10.8 
z
" style="fill: #ffffff"/>
   </g>
   <g id="matplotlib.axis_1">
    <g id="xtick_1">
     <g id="line2d_1">
      <path d="M 78.710352 447.250625 
L 78.710352 10.8 
" clip-path="url(#p440ba4b70e)" style="fill: none; stroke: #b0b0b0; stroke-width: 0.8; stroke-linecap: square"/>
     </g>
     <g id="line2d_2">
      <defs>
       <path id="mf0911eeeb2" d="M 0 0 
L 0 3.5 
" style="stroke: #000000; stroke-width: 0.8"/>
      </defs>
      <g>
       <use xlink:href="#mf0911eeeb2" x="78.710352" y="447.250625" style="stroke: #000000; stroke-width: 0.8"/>
      </g>
     </g>
     <g id="text_1">
      <!-- 0.0 -->
      <g transform="translate(67.578164 464.888438) scale(0.14 -0.14)">
       <defs>
        <path id="DejaVuSans-30" d="M 2034 4250 
Q 1547 4250 1301 3770 
Q 1056 3291 1056 2328 
Q 1056 1369 1301 889 
Q 1547 409 2034 409 
Q 2525 409 2770 889 
Q 3016 1369 3016 2328 
Q 3016 3291 2770 3770 
Q 2525 4250 2034 4250 
z
M 2034 4750 
Q 2819 4750 3233 4129 
Q 3647 3509 3647 2328 
Q 3647 1150 3233 529 
Q 2819 -91 2034 -91 
Q 1250 -91 836 529 
Q 422 1150 422 2328 
Q 422 3509 836 4129 
Q 1250 4750 2034 4750 
z
" transform="scale(0.015625)"/>
        <path id="DejaVuSans-2e" d="M 684 794 
L 1344 794 
L 1344 0 
L 684 0 
L 684 794 
z
" transform="scale(0.015625)"/>
       </defs>
       <use xlink:href="#DejaVuSans-30"/>
       <use xlink:href="#DejaVuSans-2e" transform="translate(63.623047 0)"/>
       <use xlink:href="#DejaVuSans-30" transform="translate(95.410156 0)"/>
      </g>
     </g>
    </g>
    <g id="xtick_2">
     <g id="line2d_3">
      <path d="M 159.182598 447.250625 
L 159.182598 10.8 
" clip-path="url(#p440ba4b70e)" style="fill: none; stroke: #b0b0b0; stroke-width: 0.8; stroke-linecap: square"/>
     </g>
     <g id="line2d_4">
      <g>
       <use xlink:href="#mf0911eeeb2" x="159.182598" y="447.250625" style="stroke: #000000; stroke-width: 0.8"/>
      </g>
     </g>
     <g id="text_2">
      <!-- 0.5 -->
      <g transform="translate(148.050411 464.888438) scale(0.14 -0.14)">
       <defs>
        <path id="DejaVuSans-35" d="M 691 4666 
L 3169 4666 
L 3169 4134 
L 1269 4134 
L 1269 2991 
Q 1406 3038 1543 3061 
Q 1681 3084 1819 3084 
Q 2600 3084 3056 2656 
Q 3513 2228 3513 1497 
Q 3513 744 3044 326 
Q 2575 -91 1722 -91 
Q 1428 -91 1123 -41 
Q 819 9 494 109 
L 494 744 
Q 775 591 1075 516 
Q 1375 441 1709 441 
Q 2250 441 2565 725 
Q 2881 1009 2881 1497 
Q 2881 1984 2565 2268 
Q 2250 2553 1709 2553 
Q 1456 2553 1204 2497 
Q 953 2441 691 2322 
L 691 4666 
z
" transform="scale(0.015625)"/>
       </defs>
       <use xlink:href="#DejaVuSans-30"/>
       <use xlink:href="#DejaVuSans-2e" transform="translate(63.623047 0)"/>
       <use xlink:href="#DejaVuSans-35" transform="translate(95.410156 0)"/>
      </g>
     </g>
    </g>
    <g id="xtick_3">
     <g id="line2d_5">
      <path d="M 239.654845 447.250625 
L 239.654845 10.8 
" clip-path="url(#p440ba4b70e)" style="fill: none; stroke: #b0b0b0; stroke-width: 0.8; stroke-linecap: square"/>
     </g>
     <g id="line2d_6">
      <g>
       <use xlink:href="#mf0911eeeb2" x="239.654845" y="447.250625" style="stroke: #000000; stroke-width: 0.8"/>
      </g>
     </g>
     <g id="text_3">
      <!-- 1.0 -->
      <g transform="translate(228.522657 464.888438) scale(0.14 -0.14)">
       <defs>
        <path id="DejaVuSans-31" d="M 794 531 
L 1825 531 
L 1825 4091 
L 703 3866 
L 703 4441 
L 1819 4666 
L 2450 4666 
L 2450 531 
L 3481 531 
L 3481 0 
L 794 0 
L 794 531 
z
" transform="scale(0.015625)"/>
       </defs>
       <use xlink:href="#DejaVuSans-31"/>
       <use xlink:href="#DejaVuSans-2e" transform="translate(63.623047 0)"/>
       <use xlink:href="#DejaVuSans-30" transform="translate(95.410156 0)"/>
      </g>
     </g>
    </g>
    <g id="xtick_4">
     <g id="line2d_7">
      <path d="M 320.127091 447.250625 
L 320.127091 10.8 
" clip-path="url(#p440ba4b70e)" style="fill: none; stroke: #b0b0b0; stroke-width: 0.8; stroke-linecap: square"/>
     </g>
     <g id="line2d_8">
      <g>
       <use xlink:href="#mf0911eeeb2" x="320.127091" y="447.250625" style="stroke: #000000; stroke-width: 0.8"/>
      </g>
     </g>
     <g id="text_4">
      <!-- 1.5 -->
      <g transform="translate(308.994904 464.888438) scale(0.14 -0.14)">
       <use xlink:href="#DejaVuSans-31"/>
       <use xlink:href="#DejaVuSans-2e" transform="translate(63.623047 0)"/>
       <use xlink:href="#DejaVuSans-35" transform="translate(95.410156 0)"/>
      </g>
     </g>
    </g>
    <g id="xtick_5">
     <g id="line2d_9">
      <path d="M 400.599338 447.250625 
L 400.599338 10.8 
" clip-path="url(#p440ba4b70e)" style="fill: none; stroke: #b0b0b0; stroke-width: 0.8; stroke-linecap: square"/>
     </g>
     <g id="line2d_10">
      <g>
       <use xlink:href="#mf0911eeeb2" x="400.599338" y="447.250625" style="stroke: #000000; stroke-width: 0.8"/>
      </g>
     </g>
     <g id="text_5">
      <!-- 2.0 -->
      <g transform="translate(389.46715 464.888438) scale(0.14 -0.14)">
       <defs>
        <path id="DejaVuSans-32" d="M 1228 531 
L 3431 531 
L 3431 0 
L 469 0 
L 469 531 
Q 828 903 1448 1529 
Q 2069 2156 2228 2338 
Q 2531 2678 2651 2914 
Q 2772 3150 2772 3378 
Q 2772 3750 2511 3984 
Q 2250 4219 1831 4219 
Q 1534 4219 1204 4116 
Q 875 4013 500 3803 
L 500 4441 
Q 881 4594 1212 4672 
Q 1544 4750 1819 4750 
Q 2544 4750 2975 4387 
Q 3406 4025 3406 3419 
Q 3406 3131 3298 2873 
Q 3191 2616 2906 2266 
Q 2828 2175 2409 1742 
Q 1991 1309 1228 531 
z
" transform="scale(0.015625)"/>
       </defs>
       <use xlink:href="#DejaVuSans-32"/>
       <use xlink:href="#DejaVuSans-2e" transform="translate(63.623047 0)"/>
       <use xlink:href="#DejaVuSans-30" transform="translate(95.410156 0)"/>
      </g>
     </g>
    </g>
    <g id="xtick_6">
     <g id="line2d_11">
      <path d="M 481.071584 447.250625 
L 481.071584 10.8 
" clip-path="url(#p440ba4b70e)" style="fill: none; stroke: #b0b0b0; stroke-width: 0.8; stroke-linecap: square"/>
     </g>
     <g id="line2d_12">
      <g>
       <use xlink:href="#mf0911eeeb2" x="481.071584" y="447.250625" style="stroke: #000000; stroke-width: 0.8"/>
      </g>
     </g>
     <g id="text_6">
      <!-- 2.5 -->
      <g transform="translate(469.939397 464.888438) scale(0.14 -0.14)">
       <use xlink:href="#DejaVuSans-32"/>
       <use xlink:href="#DejaVuSans-2e" transform="translate(63.623047 0)"/>
       <use xlink:href="#DejaVuSans-35" transform="translate(95.410156 0)"/>
      </g>
     </g>
    </g>
    <g id="xtick_7">
     <g id="line2d_13">
      <path d="M 561.543831 447.250625 
L 561.543831 10.8 
" clip-path="url(#p440ba4b70e)" style="fill: none; stroke: #b0b0b0; stroke-width: 0.8; stroke-linecap: square"/>
     </g>
     <g id="line2d_14">
      <g>
       <use xlink:href="#mf0911eeeb2" x="561.543831" y="447.250625" style="stroke: #000000; stroke-width: 0.8"/>
      </g>
     </g>
     <g id="text_7">
      <!-- 3.0 -->
      <g transform="translate(550.411643 464.888438) scale(0.14 -0.14)">
       <defs>
        <path id="DejaVuSans-33" d="M 2597 2516 
Q 3050 2419 3304 2112 
Q 3559 1806 3559 1356 
Q 3559 666 3084 287 
Q 2609 -91 1734 -91 
Q 1441 -91 1130 -33 
Q 819 25 488 141 
L 488 750 
Q 750 597 1062 519 
Q 1375 441 1716 441 
Q 2309 441 2620 675 
Q 2931 909 2931 1356 
Q 2931 1769 2642 2001 
Q 2353 2234 1838 2234 
L 1294 2234 
L 1294 2753 
L 1863 2753 
Q 2328 2753 2575 2939 
Q 2822 3125 2822 3475 
Q 2822 3834 2567 4026 
Q 2313 4219 1838 4219 
Q 1578 4219 1281 4162 
Q 984 4106 628 3988 
L 628 4550 
Q 988 4650 1302 4700 
Q 1616 4750 1894 4750 
Q 2613 4750 3031 4423 
Q 3450 4097 3450 3541 
Q 3450 3153 3228 2886 
Q 3006 2619 2597 2516 
z
" transform="scale(0.015625)"/>
       </defs>
       <use xlink:href="#DejaVuSans-33"/>
       <use xlink:href="#DejaVuSans-2e" transform="translate(63.623047 0)"/>
       <use xlink:href="#DejaVuSans-30" transform="translate(95.410156 0)"/>
      </g>
     </g>
    </g>
    <g id="xtick_8">
     <g id="line2d_15">
      <path d="M 642.016077 447.250625 
L 642.016077 10.8 
" clip-path="url(#p440ba4b70e)" style="fill: none; stroke: #b0b0b0; stroke-width: 0.8; stroke-linecap: square"/>
     </g>
     <g id="line2d_16">
      <g>
       <use xlink:href="#mf0911eeeb2" x="642.016077" y="447.250625" style="stroke: #000000; stroke-width: 0.8"/>
      </g>
     </g>
     <g id="text_8">
      <!-- 3.5 -->
      <g transform="translate(630.88389 464.888438) scale(0.14 -0.14)">
       <use xlink:href="#DejaVuSans-33"/>
       <use xlink:href="#DejaVuSans-2e" transform="translate(63.623047 0)"/>
       <use xlink:href="#DejaVuSans-35" transform="translate(95.410156 0)"/>
      </g>
     </g>
    </g>
    <g id="xtick_9">
     <g id="line2d_17">
      <path d="M 722.488324 447.250625 
L 722.488324 10.8 
" clip-path="url(#p440ba4b70e)" style="fill: none; stroke: #b0b0b0; stroke-width: 0.8; stroke-linecap: square"/>
     </g>
     <g id="line2d_18">
      <g>
       <use xlink:href="#mf0911eeeb2" x="722.488324" y="447.250625" style="stroke: #000000; stroke-width: 0.8"/>
      </g>
     </g>
     <g id="text_9">
      <!-- 4.0 -->
      <g transform="translate(711.356136 464.888438) scale(0.14 -0.14)">
       <defs>
        <path id="DejaVuSans-34" d="M 2419 4116 
L 825 1625 
L 2419 1625 
L 2419 4116 
z
M 2253 4666 
L 3047 4666 
L 3047 1625 
L 3713 1625 
L 3713 1100 
L 3047 1100 
L 3047 0 
L 2419 0 
L 2419 1100 
L 313 1100 
L 313 1709 
L 2253 4666 
z
" transform="scale(0.015625)"/>
       </defs>
       <use xlink:href="#DejaVuSans-34"/>
       <use xlink:href="#DejaVuSans-2e" transform="translate(63.623047 0)"/>
       <use xlink:href="#DejaVuSans-30" transform="translate(95.410156 0)"/>
      </g>
     </g>
    </g>
    <g id="text_10">
     <!-- $R_{q0}(\mathcal{M})$ -->
     <g transform="translate(373.046562 487) scale(0.2 -0.2)">
      <defs>
       <path id="DejaVuSans-Oblique-52" d="M 1613 4147 
L 1294 2491 
L 2106 2491 
Q 2584 2491 2879 2755 
Q 3175 3019 3175 3444 
Q 3175 3784 2976 3965 
Q 2778 4147 2406 4147 
L 1613 4147 
z
M 2772 2241 
Q 2972 2194 3105 2009 
Q 3238 1825 3413 1275 
L 3809 0 
L 3144 0 
L 2778 1197 
Q 2638 1659 2453 1815 
Q 2269 1972 1888 1972 
L 1191 1972 
L 806 0 
L 172 0 
L 1081 4666 
L 2503 4666 
Q 3150 4666 3495 4373 
Q 3841 4081 3841 3531 
Q 3841 3044 3547 2687 
Q 3253 2331 2772 2241 
z
" transform="scale(0.015625)"/>
       <path id="DejaVuSans-Oblique-71" d="M 2669 525 
Q 2438 222 2123 65 
Q 1809 -91 1428 -91 
Q 897 -91 595 267 
Q 294 625 294 1253 
Q 294 1759 480 2231 
Q 666 2703 1013 3078 
Q 1238 3322 1530 3453 
Q 1822 3584 2144 3584 
Q 2531 3584 2781 3431 
Q 3031 3278 3144 2969 
L 3244 3494 
L 3822 3494 
L 2888 -1319 
L 2309 -1319 
L 2669 525 
z
M 891 1338 
Q 891 875 1084 633 
Q 1278 391 1644 391 
Q 2188 391 2572 911 
Q 2956 1431 2956 2175 
Q 2956 2625 2757 2864 
Q 2559 3103 2188 3103 
Q 1916 3103 1684 2976 
Q 1453 2850 1281 2606 
Q 1100 2350 995 2006 
Q 891 1663 891 1338 
z
" transform="scale(0.015625)"/>
       <path id="DejaVuSans-28" d="M 1984 4856 
Q 1566 4138 1362 3434 
Q 1159 2731 1159 2009 
Q 1159 1288 1364 580 
Q 1569 -128 1984 -844 
L 1484 -844 
Q 1016 -109 783 600 
Q 550 1309 550 2009 
Q 550 2706 781 3412 
Q 1013 4119 1484 4856 
L 1984 4856 
z
" transform="scale(0.015625)"/>
       <path id="STIXNonUnicode-Italic-e239" d="M 7123 346 
L 7219 224 
Q 6912 -205 6310 -205 
Q 6208 -205 6096 -169 
Q 5984 -134 5865 -12 
Q 5747 109 5747 307 
Q 5747 384 5779 653 
L 6061 3181 
L 6042 3181 
L 3405 51 
L 3309 51 
Q 2682 1382 2413 2650 
L 2406 2650 
Q 2400 2611 2345 2390 
Q 2291 2170 2265 2061 
Q 2240 1952 2179 1725 
Q 2118 1498 2060 1338 
Q 2003 1178 1926 976 
Q 1850 774 1760 592 
Q 1670 410 1568 250 
Q 1229 -288 813 -288 
Q 576 -288 416 -131 
Q 256 26 256 250 
Q 256 422 345 528 
Q 435 634 595 634 
Q 698 634 768 576 
Q 838 518 867 451 
Q 896 384 947 326 
Q 998 269 1062 269 
Q 1274 269 1446 570 
Q 1555 762 1673 1088 
Q 1792 1414 1881 1731 
Q 1971 2048 2076 2483 
Q 2182 2918 2236 3187 
Q 2291 3456 2371 3840 
Q 2451 4224 2464 4294 
L 2656 4294 
Q 2931 3136 3168 2329 
Q 3405 1523 3738 838 
L 6662 4294 
L 6835 4294 
L 6445 730 
Q 6432 614 6432 544 
Q 6432 173 6714 173 
Q 6950 173 7123 346 
z
" transform="scale(0.015625)"/>
       <path id="DejaVuSans-29" d="M 513 4856 
L 1013 4856 
Q 1481 4119 1714 3412 
Q 1947 2706 1947 2009 
Q 1947 1309 1714 600 
Q 1481 -109 1013 -844 
L 513 -844 
Q 928 -128 1133 580 
Q 1338 1288 1338 2009 
Q 1338 2731 1133 3434 
Q 928 4138 513 4856 
z
" transform="scale(0.015625)"/>
      </defs>
      <use xlink:href="#DejaVuSans-Oblique-52" transform="translate(0 0.125)"/>
      <use xlink:href="#DejaVuSans-Oblique-71" transform="translate(69.482422 -16.28125) scale(0.7)"/>
      <use xlink:href="#DejaVuSans-30" transform="translate(113.916016 -16.28125) scale(0.7)"/>
      <use xlink:href="#DejaVuSans-28" transform="translate(161.186523 0.125)"/>
      <use xlink:href="#STIXNonUnicode-Italic-e239" transform="translate(200.200195 0.125)"/>
      <use xlink:href="#DejaVuSans-29" transform="translate(316.800186 0.125)"/>
     </g>
    </g>
   </g>
   <g id="matplotlib.axis_2">
    <g id="ytick_1">
     <g id="line2d_19">
      <path d="M 63.420625 429.484089 
L 753.8725 429.484089 
" clip-path="url(#p440ba4b70e)" style="fill: none; stroke: #b0b0b0; stroke-width: 0.8; stroke-linecap: square"/>
     </g>
     <g id="line2d_20">
      <defs>
       <path id="md346156b36" d="M 0 0 
L -3.5 0 
" style="stroke: #000000; stroke-width: 0.8"/>
      </defs>
      <g>
       <use xlink:href="#md346156b36" x="63.420625" y="429.484089" style="stroke: #000000; stroke-width: 0.8"/>
      </g>
     </g>
     <g id="text_11">
      <!-- 0.0 -->
      <g transform="translate(34.15625 434.802996) scale(0.14 -0.14)">
       <use xlink:href="#DejaVuSans-30"/>
       <use xlink:href="#DejaVuSans-2e" transform="translate(63.623047 0)"/>
       <use xlink:href="#DejaVuSans-30" transform="translate(95.410156 0)"/>
      </g>
     </g>
    </g>
    <g id="ytick_2">
     <g id="line2d_21">
      <path d="M 63.420625 386.844403 
L 753.8725 386.844403 
" clip-path="url(#p440ba4b70e)" style="fill: none; stroke: #b0b0b0; stroke-width: 0.8; stroke-linecap: square"/>
     </g>
     <g id="line2d_22">
      <g>
       <use xlink:href="#md346156b36" x="63.420625" y="386.844403" style="stroke: #000000; stroke-width: 0.8"/>
      </g>
     </g>
     <g id="text_12">
      <!-- 0.1 -->
      <g transform="translate(34.15625 392.163309) scale(0.14 -0.14)">
       <use xlink:href="#DejaVuSans-30"/>
       <use xlink:href="#DejaVuSans-2e" transform="translate(63.623047 0)"/>
       <use xlink:href="#DejaVuSans-31" transform="translate(95.410156 0)"/>
      </g>
     </g>
    </g>
    <g id="ytick_3">
     <g id="line2d_23">
      <path d="M 63.420625 344.204716 
L 753.8725 344.204716 
" clip-path="url(#p440ba4b70e)" style="fill: none; stroke: #b0b0b0; stroke-width: 0.8; stroke-linecap: square"/>
     </g>
     <g id="line2d_24">
      <g>
       <use xlink:href="#md346156b36" x="63.420625" y="344.204716" style="stroke: #000000; stroke-width: 0.8"/>
      </g>
     </g>
     <g id="text_13">
      <!-- 0.2 -->
      <g transform="translate(34.15625 349.523623) scale(0.14 -0.14)">
       <use xlink:href="#DejaVuSans-30"/>
       <use xlink:href="#DejaVuSans-2e" transform="translate(63.623047 0)"/>
       <use xlink:href="#DejaVuSans-32" transform="translate(95.410156 0)"/>
      </g>
     </g>
    </g>
    <g id="ytick_4">
     <g id="line2d_25">
      <path d="M 63.420625 301.56503 
L 753.8725 301.56503 
" clip-path="url(#p440ba4b70e)" style="fill: none; stroke: #b0b0b0; stroke-width: 0.8; stroke-linecap: square"/>
     </g>
     <g id="line2d_26">
      <g>
       <use xlink:href="#md346156b36" x="63.420625" y="301.56503" style="stroke: #000000; stroke-width: 0.8"/>
      </g>
     </g>
     <g id="text_14">
      <!-- 0.3 -->
      <g transform="translate(34.15625 306.883936) scale(0.14 -0.14)">
       <use xlink:href="#DejaVuSans-30"/>
       <use xlink:href="#DejaVuSans-2e" transform="translate(63.623047 0)"/>
       <use xlink:href="#DejaVuSans-33" transform="translate(95.410156 0)"/>
      </g>
     </g>
    </g>
    <g id="ytick_5">
     <g id="line2d_27">
      <path d="M 63.420625 258.925343 
L 753.8725 258.925343 
" clip-path="url(#p440ba4b70e)" style="fill: none; stroke: #b0b0b0; stroke-width: 0.8; stroke-linecap: square"/>
     </g>
     <g id="line2d_28">
      <g>
       <use xlink:href="#md346156b36" x="63.420625" y="258.925343" style="stroke: #000000; stroke-width: 0.8"/>
      </g>
     </g>
     <g id="text_15">
      <!-- 0.4 -->
      <g transform="translate(34.15625 264.244249) scale(0.14 -0.14)">
       <use xlink:href="#DejaVuSans-30"/>
       <use xlink:href="#DejaVuSans-2e" transform="translate(63.623047 0)"/>
       <use xlink:href="#DejaVuSans-34" transform="translate(95.410156 0)"/>
      </g>
     </g>
    </g>
    <g id="ytick_6">
     <g id="line2d_29">
      <path d="M 63.420625 216.285657 
L 753.8725 216.285657 
" clip-path="url(#p440ba4b70e)" style="fill: none; stroke: #b0b0b0; stroke-width: 0.8; stroke-linecap: square"/>
     </g>
     <g id="line2d_30">
      <g>
       <use xlink:href="#md346156b36" x="63.420625" y="216.285657" style="stroke: #000000; stroke-width: 0.8"/>
      </g>
     </g>
     <g id="text_16">
      <!-- 0.5 -->
      <g transform="translate(34.15625 221.604563) scale(0.14 -0.14)">
       <use xlink:href="#DejaVuSans-30"/>
       <use xlink:href="#DejaVuSans-2e" transform="translate(63.623047 0)"/>
       <use xlink:href="#DejaVuSans-35" transform="translate(95.410156 0)"/>
      </g>
     </g>
    </g>
    <g id="ytick_7">
     <g id="line2d_31">
      <path d="M 63.420625 173.64597 
L 753.8725 173.64597 
" clip-path="url(#p440ba4b70e)" style="fill: none; stroke: #b0b0b0; stroke-width: 0.8; stroke-linecap: square"/>
     </g>
     <g id="line2d_32">
      <g>
       <use xlink:href="#md346156b36" x="63.420625" y="173.64597" style="stroke: #000000; stroke-width: 0.8"/>
      </g>
     </g>
     <g id="text_17">
      <!-- 0.6 -->
      <g transform="translate(34.15625 178.964876) scale(0.14 -0.14)">
       <defs>
        <path id="DejaVuSans-36" d="M 2113 2584 
Q 1688 2584 1439 2293 
Q 1191 2003 1191 1497 
Q 1191 994 1439 701 
Q 1688 409 2113 409 
Q 2538 409 2786 701 
Q 3034 994 3034 1497 
Q 3034 2003 2786 2293 
Q 2538 2584 2113 2584 
z
M 3366 4563 
L 3366 3988 
Q 3128 4100 2886 4159 
Q 2644 4219 2406 4219 
Q 1781 4219 1451 3797 
Q 1122 3375 1075 2522 
Q 1259 2794 1537 2939 
Q 1816 3084 2150 3084 
Q 2853 3084 3261 2657 
Q 3669 2231 3669 1497 
Q 3669 778 3244 343 
Q 2819 -91 2113 -91 
Q 1303 -91 875 529 
Q 447 1150 447 2328 
Q 447 3434 972 4092 
Q 1497 4750 2381 4750 
Q 2619 4750 2861 4703 
Q 3103 4656 3366 4563 
z
" transform="scale(0.015625)"/>
       </defs>
       <use xlink:href="#DejaVuSans-30"/>
       <use xlink:href="#DejaVuSans-2e" transform="translate(63.623047 0)"/>
       <use xlink:href="#DejaVuSans-36" transform="translate(95.410156 0)"/>
      </g>
     </g>
    </g>
    <g id="ytick_8">
     <g id="line2d_33">
      <path d="M 63.420625 131.006284 
L 753.8725 131.006284 
" clip-path="url(#p440ba4b70e)" style="fill: none; stroke: #b0b0b0; stroke-width: 0.8; stroke-linecap: square"/>
     </g>
     <g id="line2d_34">
      <g>
       <use xlink:href="#md346156b36" x="63.420625" y="131.006284" style="stroke: #000000; stroke-width: 0.8"/>
      </g>
     </g>
     <g id="text_18">
      <!-- 0.7 -->
      <g transform="translate(34.15625 136.32519) scale(0.14 -0.14)">
       <defs>
        <path id="DejaVuSans-37" d="M 525 4666 
L 3525 4666 
L 3525 4397 
L 1831 0 
L 1172 0 
L 2766 4134 
L 525 4134 
L 525 4666 
z
" transform="scale(0.015625)"/>
       </defs>
       <use xlink:href="#DejaVuSans-30"/>
       <use xlink:href="#DejaVuSans-2e" transform="translate(63.623047 0)"/>
       <use xlink:href="#DejaVuSans-37" transform="translate(95.410156 0)"/>
      </g>
     </g>
    </g>
    <g id="ytick_9">
     <g id="line2d_35">
      <path d="M 63.420625 88.366597 
L 753.8725 88.366597 
" clip-path="url(#p440ba4b70e)" style="fill: none; stroke: #b0b0b0; stroke-width: 0.8; stroke-linecap: square"/>
     </g>
     <g id="line2d_36">
      <g>
       <use xlink:href="#md346156b36" x="63.420625" y="88.366597" style="stroke: #000000; stroke-width: 0.8"/>
      </g>
     </g>
     <g id="text_19">
      <!-- 0.8 -->
      <g transform="translate(34.15625 93.685503) scale(0.14 -0.14)">
       <defs>
        <path id="DejaVuSans-38" d="M 2034 2216 
Q 1584 2216 1326 1975 
Q 1069 1734 1069 1313 
Q 1069 891 1326 650 
Q 1584 409 2034 409 
Q 2484 409 2743 651 
Q 3003 894 3003 1313 
Q 3003 1734 2745 1975 
Q 2488 2216 2034 2216 
z
M 1403 2484 
Q 997 2584 770 2862 
Q 544 3141 544 3541 
Q 544 4100 942 4425 
Q 1341 4750 2034 4750 
Q 2731 4750 3128 4425 
Q 3525 4100 3525 3541 
Q 3525 3141 3298 2862 
Q 3072 2584 2669 2484 
Q 3125 2378 3379 2068 
Q 3634 1759 3634 1313 
Q 3634 634 3220 271 
Q 2806 -91 2034 -91 
Q 1263 -91 848 271 
Q 434 634 434 1313 
Q 434 1759 690 2068 
Q 947 2378 1403 2484 
z
M 1172 3481 
Q 1172 3119 1398 2916 
Q 1625 2713 2034 2713 
Q 2441 2713 2670 2916 
Q 2900 3119 2900 3481 
Q 2900 3844 2670 4047 
Q 2441 4250 2034 4250 
Q 1625 4250 1398 4047 
Q 1172 3844 1172 3481 
z
" transform="scale(0.015625)"/>
       </defs>
       <use xlink:href="#DejaVuSans-30"/>
       <use xlink:href="#DejaVuSans-2e" transform="translate(63.623047 0)"/>
       <use xlink:href="#DejaVuSans-38" transform="translate(95.410156 0)"/>
      </g>
     </g>
    </g>
    <g id="ytick_10">
     <g id="line2d_37">
      <path d="M 63.420625 45.726911 
L 753.8725 45.726911 
" clip-path="url(#p440ba4b70e)" style="fill: none; stroke: #b0b0b0; stroke-width: 0.8; stroke-linecap: square"/>
     </g>
     <g id="line2d_38">
      <g>
       <use xlink:href="#md346156b36" x="63.420625" y="45.726911" style="stroke: #000000; stroke-width: 0.8"/>
      </g>
     </g>
     <g id="text_20">
      <!-- 0.9 -->
      <g transform="translate(34.15625 51.045817) scale(0.14 -0.14)">
       <defs>
        <path id="DejaVuSans-39" d="M 703 97 
L 703 672 
Q 941 559 1184 500 
Q 1428 441 1663 441 
Q 2288 441 2617 861 
Q 2947 1281 2994 2138 
Q 2813 1869 2534 1725 
Q 2256 1581 1919 1581 
Q 1219 1581 811 2004 
Q 403 2428 403 3163 
Q 403 3881 828 4315 
Q 1253 4750 1959 4750 
Q 2769 4750 3195 4129 
Q 3622 3509 3622 2328 
Q 3622 1225 3098 567 
Q 2575 -91 1691 -91 
Q 1453 -91 1209 -44 
Q 966 3 703 97 
z
M 1959 2075 
Q 2384 2075 2632 2365 
Q 2881 2656 2881 3163 
Q 2881 3666 2632 3958 
Q 2384 4250 1959 4250 
Q 1534 4250 1286 3958 
Q 1038 3666 1038 3163 
Q 1038 2656 1286 2365 
Q 1534 2075 1959 2075 
z
" transform="scale(0.015625)"/>
       </defs>
       <use xlink:href="#DejaVuSans-30"/>
       <use xlink:href="#DejaVuSans-2e" transform="translate(63.623047 0)"/>
       <use xlink:href="#DejaVuSans-39" transform="translate(95.410156 0)"/>
      </g>
     </g>
    </g>
    <g id="text_21">
     <!-- $R_{\Delta h}(\mathcal{M})$ -->
     <g transform="translate(25.996875 265.025312) rotate(-90) scale(0.2 -0.2)">
      <defs>
       <path id="DejaVuSans-394" d="M 2188 4044 
L 906 525 
L 3472 525 
L 2188 4044 
z
M 50 0 
L 1831 4666 
L 2547 4666 
L 4325 0 
L 50 0 
z
" transform="scale(0.015625)"/>
       <path id="DejaVuSans-Oblique-68" d="M 3566 2113 
L 3156 0 
L 2578 0 
L 2988 2091 
Q 3016 2238 3031 2350 
Q 3047 2463 3047 2528 
Q 3047 2791 2881 2937 
Q 2716 3084 2419 3084 
Q 1956 3084 1617 2771 
Q 1278 2459 1178 1941 
L 800 0 
L 225 0 
L 1172 4863 
L 1747 4863 
L 1375 2950 
Q 1594 3244 1934 3414 
Q 2275 3584 2650 3584 
Q 3113 3584 3367 3334 
Q 3622 3084 3622 2631 
Q 3622 2519 3608 2391 
Q 3594 2263 3566 2113 
z
" transform="scale(0.015625)"/>
      </defs>
      <use xlink:href="#DejaVuSans-Oblique-52" transform="translate(0 0.125)"/>
      <use xlink:href="#DejaVuSans-394" transform="translate(69.482422 -16.28125) scale(0.7)"/>
      <use xlink:href="#DejaVuSans-Oblique-68" transform="translate(117.368164 -16.28125) scale(0.7)"/>
      <use xlink:href="#DejaVuSans-28" transform="translate(164.467773 0.125)"/>
      <use xlink:href="#STIXNonUnicode-Italic-e239" transform="translate(203.481445 0.125)"/>
      <use xlink:href="#DejaVuSans-29" transform="translate(320.081436 0.125)"/>
     </g>
    </g>
   </g>
   <g id="line2d_39">
    <path d="M 94.804801 426.274156 
L 116.449061 421.416143 
L 138.09332 415.93685 
L 159.737579 409.83574 
L 181.381839 403.112264 
L 203.026098 395.76586 
L 224.670358 387.795957 
L 246.314617 379.201963 
L 267.958876 369.983276 
L 289.603136 360.139268 
L 311.247395 349.669297 
L 332.891655 338.572691 
L 354.535914 326.848756 
L 376.180173 314.496765 
L 397.824433 301.515959 
L 419.468692 287.905541 
L 441.112952 273.664669 
L 462.757211 258.792454 
L 484.40147 243.287947 
L 506.04573 227.150136 
L 527.689989 210.377934 
L 549.334249 192.970164 
L 570.978508 174.925542 
L 592.622767 156.242663 
L 614.267027 136.919968 
L 635.911286 116.955714 
L 657.555546 96.347926 
L 679.199805 75.094337 
L 700.844064 53.192301 
L 722.488324 30.638665 
" clip-path="url(#p440ba4b70e)" style="fill: none; stroke: #1f77b4; stroke-width: 2; stroke-linecap: square"/>
   </g>
   <g id="line2d_40">
    <path d="M 94.804801 426.46223 
L 116.449061 421.855992 
L 138.09332 416.626958 
L 159.737579 410.774373 
L 181.381839 404.297467 
L 203.026098 397.195455 
L 224.670358 389.467533 
L 246.314617 381.112875 
L 267.958876 372.130634 
L 289.603136 362.519935 
L 311.247395 352.279874 
L 332.891655 341.409512 
L 354.535914 329.907877 
L 376.180173 317.77395 
L 397.824433 305.006667 
L 419.468692 291.60491 
L 441.112952 277.567498 
L 462.757211 262.89318 
L 484.40147 247.580624 
L 506.04573 231.628402 
L 527.689989 215.034978 
L 549.334249 197.798682 
L 570.978508 179.91769 
L 592.622767 161.38999 
L 614.267027 142.213335 
L 635.911286 122.38519 
L 657.555546 101.902646 
L 679.199805 80.762307 
L 700.844064 58.960112 
L 722.488324 36.491059 
" clip-path="url(#p440ba4b70e)" style="fill: none; stroke: #ff7f0e; stroke-width: 2; stroke-linecap: square"/>
   </g>
   <g id="line2d_41">
    <path d="M 94.804801 426.651062 
L 116.449061 422.297782 
L 138.09332 417.320383 
L 159.737579 411.717901 
L 181.381839 405.489355 
L 203.026098 398.633742 
L 224.670358 391.150037 
L 246.314617 383.037189 
L 267.958876 374.294117 
L 289.603136 364.919706 
L 311.247395 354.912805 
L 332.891655 344.272221 
L 354.535914 332.996713 
L 376.180173 321.084988 
L 397.824433 308.535691 
L 419.468692 295.347401 
L 441.112952 281.518616 
L 462.757211 267.047747 
L 484.40147 251.933099 
L 506.04573 236.17286 
L 527.689989 219.765074 
L 549.334249 202.70762 
L 570.978508 184.998176 
L 592.622767 166.634176 
L 614.267027 147.612757 
L 635.911286 127.930672 
L 657.555546 107.584187 
L 679.199805 86.568914 
L 700.844064 64.879558 
L 722.488324 42.509498 
" clip-path="url(#p440ba4b70e)" style="fill: none; stroke: #2ca02c; stroke-width: 2; stroke-linecap: square"/>
   </g>
   <g id="line2d_42">
    <path d="M 94.804801 426.840526 
L 116.449061 422.741191 
L 138.09332 418.016578 
L 159.737579 412.665518 
L 181.381839 406.686823 
L 203.026098 400.079279 
L 224.670358 392.841645 
L 246.314617 384.972648 
L 267.958876 376.47098 
L 289.603136 367.335296 
L 311.247395 357.564202 
L 332.891655 347.156258 
L 354.535914 336.109965 
L 376.180173 324.423763 
L 397.824433 312.096018 
L 419.468692 299.125015 
L 441.112952 285.508946 
L 462.757211 271.245896 
L 484.40147 256.333828 
L 506.04573 240.77056 
L 527.689989 224.553742 
L 549.334249 207.680827 
L 570.978508 190.149028 
L 592.622767 171.95527 
L 614.267027 153.096117 
L 635.911286 133.567684 
L 657.555546 113.365499 
L 679.199805 92.484306 
L 700.844064 70.917755 
L 722.488324 48.657881 
" clip-path="url(#p440ba4b70e)" style="fill: none; stroke: #d62728; stroke-width: 2; stroke-linecap: square"/>
   </g>
   <g id="line2d_43">
    <path d="M 94.804801 427.030539 
L 116.449061 423.186017 
L 138.09332 418.715207 
L 159.737579 413.61674 
L 181.381839 407.889223 
L 203.026098 401.531234 
L 224.670358 394.54132 
L 246.314617 386.917992 
L 267.958876 378.659719 
L 289.603136 369.764927 
L 311.247395 360.231988 
L 332.891655 350.059219 
L 354.535914 339.244871 
L 376.180173 327.787121 
L 397.824433 315.684065 
L 419.468692 302.933704 
L 441.112952 289.533932 
L 462.757211 275.48252 
L 484.40147 260.777099 
L 506.04573 245.415135 
L 527.689989 229.393901 
L 549.334249 212.710444 
L 570.978508 195.361539 
L 592.622767 177.343629 
L 614.267027 158.652753 
L 635.911286 139.284435 
L 657.555546 119.233537 
L 679.199805 98.494037 
L 700.844064 77.058681 
L 722.488324 54.918395 
" clip-path="url(#p440ba4b70e)" style="fill: none; stroke: #9467bd; stroke-width: 2; stroke-linecap: square"/>
   </g>
   <g id="line2d_44">
    <path d="M 94.804801 427.221036 
L 116.449061 423.632102 
L 138.09332 419.416013 
L 159.737579 414.571202 
L 181.381839 409.096075 
L 203.026098 402.989004 
L 224.670358 396.248326 
L 246.314617 388.872338 
L 267.958876 380.859293 
L 289.603136 372.207389 
L 311.247395 362.91477 
L 332.891655 352.979514 
L 354.535914 342.399624 
L 376.180173 331.173025 
L 397.824433 319.297545 
L 419.468692 306.770909 
L 441.112952 293.590721 
L 462.757211 279.754449 
L 484.40147 265.259401 
L 506.04573 250.102702 
L 527.689989 234.281265 
L 549.334249 217.791747 
L 570.978508 200.630504 
L 592.622767 182.793529 
L 614.267027 164.276362 
L 635.911286 145.073983 
L 657.555546 125.180643 
L 679.199805 104.589633 
L 700.844064 83.292912 
L 722.488324 61.280489 
" clip-path="url(#p440ba4b70e)" style="fill: none; stroke: #8c564b; stroke-width: 2; stroke-linecap: square"/>
   </g>
   <g id="line2d_45">
    <path d="M 94.804801 427.41196 
L 116.449061 424.079307 
L 138.09332 420.118774 
L 159.737579 415.528595 
L 181.381839 410.306975 
L 203.026098 404.452085 
L 224.670358 397.962054 
L 246.314617 390.83497 
L 267.958876 383.068867 
L 289.603136 374.661724 
L 311.247395 365.611457 
L 332.891655 355.915908 
L 354.535914 345.572842 
L 376.180173 334.579929 
L 397.824433 322.934741 
L 419.468692 310.634731 
L 441.112952 297.677219 
L 462.757211 284.059377 
L 484.40147 269.778201 
L 506.04573 254.830487 
L 527.689989 239.212796 
L 549.334249 222.921414 
L 570.978508 205.952296 
L 592.622767 188.301002 
L 614.267027 169.962605 
L 635.911286 150.931574 
L 657.555546 131.201597 
L 679.199805 110.765341 
L 700.844064 89.614069 
L 722.488324 67.737013 
" clip-path="url(#p440ba4b70e)" style="fill: none; stroke: #e377c2; stroke-width: 2; stroke-linecap: square"/>
   </g>
   <g id="patch_3">
    <path d="M 63.420625 447.250625 
L 63.420625 10.8 
" style="fill: none; stroke: #000000; stroke-width: 0.8; stroke-linejoin: miter; stroke-linecap: square"/>
   </g>
   <g id="patch_4">
    <path d="M 753.8725 447.250625 
L 753.8725 10.8 
" style="fill: none; stroke: #000000; stroke-width: 0.8; stroke-linejoin: miter; stroke-linecap: square"/>
   </g>
   <g id="patch_5">
    <path d="M 63.420625 447.250625 
L 753.8725 447.250625 
" style="fill: none; stroke: #000000; stroke-width: 0.8; stroke-linejoin: miter; stroke-linecap: square"/>
   </g>
   <g id="patch_6">
    <path d="M 63.420625 10.8 
L 753.8725 10.8 
" style="fill: none; stroke: #000000; stroke-width: 0.8; stroke-linejoin: miter; stroke-linecap: square"/>
   </g>
   <g id="legend_1">
    <g id="patch_7">
     <path d="M 765.0725 187.995 
L 850 187.995 
Q 853.2 187.995 853.2 184.795 
L 853.2 22 
Q 853.2 18.8 850 18.8 
L 765.0725 18.8 
Q 761.8725 18.8 761.8725 22 
L 761.8725 184.795 
Q 761.8725 187.995 765.0725 187.995 
z
" style="fill: #ffffff; opacity: 0.8; stroke: #cccccc; stroke-linejoin: miter"/>
    </g>
    <g id="line2d_46">
     <path d="M 768.2725 31.7575 
L 784.2725 31.7575 
L 800.2725 31.7575 
" style="fill: none; stroke: #1f77b4; stroke-width: 2; stroke-linecap: square"/>
    </g>
    <g id="text_22">
     <!-- n=2 -->
     <g transform="translate(813.0725 37.3575) scale(0.16 -0.16)">
      <defs>
       <path id="DejaVuSans-6e" d="M 3513 2113 
L 3513 0 
L 2938 0 
L 2938 2094 
Q 2938 2591 2744 2837 
Q 2550 3084 2163 3084 
Q 1697 3084 1428 2787 
Q 1159 2491 1159 1978 
L 1159 0 
L 581 0 
L 581 3500 
L 1159 3500 
L 1159 2956 
Q 1366 3272 1645 3428 
Q 1925 3584 2291 3584 
Q 2894 3584 3203 3211 
Q 3513 2838 3513 2113 
z
" transform="scale(0.015625)"/>
       <path id="DejaVuSans-3d" d="M 678 2906 
L 4684 2906 
L 4684 2381 
L 678 2381 
L 678 2906 
z
M 678 1631 
L 4684 1631 
L 4684 1100 
L 678 1100 
L 678 1631 
z
" transform="scale(0.015625)"/>
      </defs>
      <use xlink:href="#DejaVuSans-6e"/>
      <use xlink:href="#DejaVuSans-3d" transform="translate(63.378906 0)"/>
      <use xlink:href="#DejaVuSans-32" transform="translate(147.167969 0)"/>
     </g>
    </g>
    <g id="line2d_47">
     <path d="M 768.2725 55.2425 
L 784.2725 55.2425 
L 800.2725 55.2425 
" style="fill: none; stroke: #ff7f0e; stroke-width: 2; stroke-linecap: square"/>
    </g>
    <g id="text_23">
     <!-- n=3 -->
     <g transform="translate(813.0725 60.8425) scale(0.16 -0.16)">
      <use xlink:href="#DejaVuSans-6e"/>
      <use xlink:href="#DejaVuSans-3d" transform="translate(63.378906 0)"/>
      <use xlink:href="#DejaVuSans-33" transform="translate(147.167969 0)"/>
     </g>
    </g>
    <g id="line2d_48">
     <path d="M 768.2725 78.7275 
L 784.2725 78.7275 
L 800.2725 78.7275 
" style="fill: none; stroke: #2ca02c; stroke-width: 2; stroke-linecap: square"/>
    </g>
    <g id="text_24">
     <!-- n=4 -->
     <g transform="translate(813.0725 84.3275) scale(0.16 -0.16)">
      <use xlink:href="#DejaVuSans-6e"/>
      <use xlink:href="#DejaVuSans-3d" transform="translate(63.378906 0)"/>
      <use xlink:href="#DejaVuSans-34" transform="translate(147.167969 0)"/>
     </g>
    </g>
    <g id="line2d_49">
     <path d="M 768.2725 102.2125 
L 784.2725 102.2125 
L 800.2725 102.2125 
" style="fill: none; stroke: #d62728; stroke-width: 2; stroke-linecap: square"/>
    </g>
    <g id="text_25">
     <!-- n=5 -->
     <g transform="translate(813.0725 107.8125) scale(0.16 -0.16)">
      <use xlink:href="#DejaVuSans-6e"/>
      <use xlink:href="#DejaVuSans-3d" transform="translate(63.378906 0)"/>
      <use xlink:href="#DejaVuSans-35" transform="translate(147.167969 0)"/>
     </g>
    </g>
    <g id="line2d_50">
     <path d="M 768.2725 125.6975 
L 784.2725 125.6975 
L 800.2725 125.6975 
" style="fill: none; stroke: #9467bd; stroke-width: 2; stroke-linecap: square"/>
    </g>
    <g id="text_26">
     <!-- n=6 -->
     <g transform="translate(813.0725 131.2975) scale(0.16 -0.16)">
      <use xlink:href="#DejaVuSans-6e"/>
      <use xlink:href="#DejaVuSans-3d" transform="translate(63.378906 0)"/>
      <use xlink:href="#DejaVuSans-36" transform="translate(147.167969 0)"/>
     </g>
    </g>
    <g id="line2d_51">
     <path d="M 768.2725 149.1825 
L 784.2725 149.1825 
L 800.2725 149.1825 
" style="fill: none; stroke: #8c564b; stroke-width: 2; stroke-linecap: square"/>
    </g>
    <g id="text_27">
     <!-- n=7 -->
     <g transform="translate(813.0725 154.7825) scale(0.16 -0.16)">
      <use xlink:href="#DejaVuSans-6e"/>
      <use xlink:href="#DejaVuSans-3d" transform="translate(63.378906 0)"/>
      <use xlink:href="#DejaVuSans-37" transform="translate(147.167969 0)"/>
     </g>
    </g>
    <g id="line2d_52">
     <path d="M 768.2725 172.6675 
L 784.2725 172.6675 
L 800.2725 172.6675 
" style="fill: none; stroke: #e377c2; stroke-width: 2; stroke-linecap: square"/>
    </g>
    <g id="text_28">
     <!-- n=8 -->
     <g transform="translate(813.0725 178.2675) scale(0.16 -0.16)">
      <use xlink:href="#DejaVuSans-6e"/>
      <use xlink:href="#DejaVuSans-3d" transform="translate(63.378906 0)"/>
      <use xlink:href="#DejaVuSans-38" transform="translate(147.167969 0)"/>
     </g>
    </g>
   </g>
  </g>
 </g>
 <defs>
  <clipPath id="p440ba4b70e">
   <rect x="63.420625" y="10.8" width="690.451875" height="436.450625"/>
  </clipPath>
 </defs>
</svg>
